<svg xmlns="http://www.w3.org/2000/svg" xmlns:xlink="http://www.w3.org/1999/xlink" width="1000" zoomAndPan="magnify" viewBox="0 0 750 749.999995" height="1000" preserveAspectRatio="xMidYMid meet" version="1.2"><defs><clipPath id="8d8d021785"><path d="M 54 11.03125 L 696 11.03125 L 696 739 L 54 739 Z M 54 11.03125 "/></clipPath></defs><g id="67e7e8cc50"><g clip-rule="nonzero" clip-path="url(#8d8d021785)"><path style=" stroke:none;fill-rule:evenodd;fill:#4267b2;fill-opacity:1;" d="M 480.296875 192.363281 C 459.195312 84.023438 419.898438 11.191406 374.898438 11.191406 C 334.253906 11.191406 298.261719 70.601562 276.132812 161.921875 C 275.148438 165.972656 277.375 170.058594 281.3125 171.441406 C 281.601562 171.542969 281.902344 171.644531 282.199219 171.753906 C 284.453125 172.546875 286.710938 172.359375 288.796875 171.195312 C 290.890625 170.03125 292.238281 168.21875 292.753906 165.882812 C 308.089844 96.558594 330.910156 52.605469 356.398438 52.605469 C 387.175781 52.605469 414.070312 116.714844 428.582031 212.1875 C 440.492188 290.503906 442.726562 368.820312 437.808594 448.769531 C 437.617188 451.882812 439.09375 454.652344 441.785156 456.230469 C 454.039062 463.402344 467.242188 470.367188 481.03125 476.839844 C 483.492188 477.996094 486.125 477.886719 488.480469 476.535156 C 490.839844 475.179688 492.265625 472.960938 492.503906 470.265625 C 500.566406 381.414062 497.453125 280.429688 480.296875 192.371094 Z M 180.71875 317.949219 C 122.167969 266.492188 91.519531 221.097656 105.007812 197.738281 C 119.644531 172.386719 182.75 179.082031 266.269531 210.046875 L 279.101562 214.980469 C 281.75 216 283.546875 218.117188 284.113281 220.894531 C 286.601562 233.058594 297.367188 242.207031 310.265625 242.207031 C 325.007812 242.207031 336.960938 230.257812 336.960938 215.511719 C 336.960938 200.765625 325.007812 188.8125 310.265625 188.8125 C 303.28125 188.8125 296.921875 191.496094 292.164062 195.882812 C 289.894531 197.980469 286.871094 198.589844 283.96875 197.550781 L 269.5 192.355469 C 165.132812 156.464844 82.398438 154.078125 59.90625 193.046875 C 39.632812 228.160156 72.875 288.832031 140.566406 353.480469 C 143.582031 356.359375 148.246094 356.476562 151.410156 353.753906 C 160.628906 345.820312 170.324219 338.019531 180.292969 330.417969 C 182.285156 328.898438 183.375 326.78125 183.460938 324.277344 C 183.550781 321.777344 182.605469 319.585938 180.71875 317.9375 Z M 272.859375 361.785156 C 315.421875 333.210938 361.929688 306.210938 407.402344 283.519531 C 410.195312 282.132812 411.851562 279.460938 411.867188 276.347656 C 411.953125 262.167969 411.378906 247.226562 410.09375 232.054688 C 409.867188 229.347656 408.457031 227.121094 406.105469 225.753906 C 403.757812 224.386719 401.121094 224.261719 398.65625 225.40625 C 317.675781 262.855469 231.792969 316.03125 164.097656 374.925781 C 80.828125 447.355469 37.398438 517.808594 59.90625 556.777344 C 80.222656 591.980469 149.671875 593.441406 239.824219 566.949219 C 243.828125 565.777344 246.257812 561.796875 245.484375 557.703125 C 245.425781 557.398438 245.367188 557.085938 245.308594 556.773438 C 244.875 554.421875 243.578125 552.566406 241.527344 551.339844 C 239.476562 550.109375 237.226562 549.847656 234.953125 550.566406 C 167.246094 571.945312 117.765625 574.164062 105.023438 552.09375 C 89.636719 525.441406 131.703125 470.097656 207.125 409.789062 C 230.019531 391.488281 249.703125 377.339844 272.867188 361.785156 Z M 336 374.917969 C 336 396.398438 353.417969 413.8125 374.898438 413.8125 C 396.378906 413.8125 413.792969 396.398438 413.792969 374.917969 C 413.792969 353.433594 396.378906 336.019531 374.898438 336.019531 C 353.417969 336.019531 336 353.433594 336 374.917969 Z M 374.898438 738.640625 C 415.4375 738.640625 451.359375 679.515625 473.503906 588.570312 C 474.492188 584.515625 472.261719 580.414062 468.324219 579.039062 C 456.84375 575.023438 445.242188 570.527344 433.667969 565.699219 C 431.363281 564.730469 428.976562 564.847656 426.765625 566.019531 C 424.554688 567.195312 423.136719 569.109375 422.640625 571.5625 C 407.351562 647.992188 383.367188 697.234375 356.390625 697.234375 C 327.121094 697.234375 301.359375 639.234375 286.425781 551.425781 L 284.28125 537.851562 C 283.835938 535.050781 284.773438 532.429688 286.898438 530.554688 C 296.1875 522.320312 298.734375 508.417969 292.28125 497.253906 C 284.914062 484.484375 268.582031 480.105469 255.816406 487.484375 C 243.046875 494.851562 238.667969 511.183594 246.046875 523.949219 C 249.535156 530 255.042969 534.164062 261.21875 536.082031 C 264.164062 537 266.21875 539.320312 266.761719 542.355469 L 269.5 557.476562 C 290.59375 665.808594 329.898438 738.648438 374.898438 738.648438 Z M 663.28125 520.058594 C 647.894531 546.710938 578.925781 537.945312 488.992188 502.78125 C 415.214844 473.929688 346.265625 436.707031 279.492188 392.476562 C 276.894531 390.753906 273.753906 390.652344 271.039062 392.195312 C 258.730469 399.207031 246.066406 407.179688 233.570312 415.878906 C 231.335938 417.429688 230.113281 419.765625 230.105469 422.476562 C 230.097656 425.199219 231.308594 427.535156 233.527344 429.097656 C 306.445312 480.5 395.457031 528.300781 480.289062 557.476562 C 584.65625 593.371094 667.390625 595.757812 689.882812 556.785156 C 710.207031 521.59375 676.753906 460.710938 608.730469 395.890625 C 605.71875 393.015625 601.054688 392.898438 597.898438 395.613281 C 597.65625 395.816406 597.425781 396.019531 597.183594 396.230469 C 595.367188 397.789062 594.40625 399.832031 594.371094 402.226562 C 594.332031 404.617188 595.226562 406.691406 596.988281 408.308594 C 649.355469 456.246094 676.019531 497.992188 663.273438 520.066406 Z M 689.890625 193.054688 C 669.617188 157.941406 600.449219 156.398438 510.617188 182.695312 C 506.617188 183.867188 504.179688 187.847656 504.953125 191.949219 C 507.214844 203.902344 509.121094 216.195312 510.71875 228.628906 C 511.039062 231.109375 512.328125 233.117188 514.453125 234.445312 C 516.574219 235.769531 518.941406 236.046875 521.3125 235.246094 C 595.148438 210.273438 649.785156 206.425781 663.273438 229.785156 C 677.910156 255.136719 640.5625 306.441406 571.984375 363.277344 L 561.300781 371.925781 C 559.09375 373.710938 556.359375 374.203125 553.667969 373.308594 C 541.890625 369.382812 528.585938 374.132812 522.132812 385.296875 C 514.765625 398.066406 519.136719 414.394531 531.902344 421.765625 C 544.671875 429.132812 561 424.761719 568.371094 411.996094 C 571.863281 405.941406 572.71875 399.097656 571.292969 392.785156 C 570.617188 389.773438 571.601562 386.839844 573.957031 384.847656 L 585.691406 374.917969 C 668.960938 302.476562 712.390625 232.023438 689.890625 193.054688 Z M 689.890625 193.054688 "/></g></g></svg>