<svg xmlns="http://www.w3.org/2000/svg" xmlns:xlink="http://www.w3.org/1999/xlink" width="400" zoomAndPan="magnify" viewBox="0 0 300 149.999998" height="200" preserveAspectRatio="xMidYMid meet" version="1.2"><defs/><g id="c7a10f62a9"><rect x="0" width="300" y="0" height="149.999998" style="fill:#ffffff;fill-opacity:1;stroke:none;"/><rect x="0" width="300" y="0" height="149.999998" style="fill:#ffffff;fill-opacity:1;stroke:none;"/><g style="fill:#000000;fill-opacity:1;"><g transform="translate(86.356932, 46.524198)"><path style="stroke:none" d="M 9.046875 -13.765625 C 7.734375 -13.765625 6.71875 -13.269531 6 -12.28125 C 5.28125 -11.300781 4.921875 -9.929688 4.921875 -8.171875 C 4.921875 -4.503906 6.296875 -2.671875 9.046875 -2.671875 C 10.203125 -2.671875 11.597656 -2.960938 13.234375 -3.546875 L 13.234375 -0.625 C 11.890625 -0.0625 10.382812 0.21875 8.71875 0.21875 C 6.332031 0.21875 4.503906 -0.503906 3.234375 -1.953125 C 1.972656 -3.398438 1.34375 -5.476562 1.34375 -8.1875 C 1.34375 -9.894531 1.648438 -11.390625 2.265625 -12.671875 C 2.890625 -13.960938 3.785156 -14.953125 4.953125 -15.640625 C 6.117188 -16.328125 7.484375 -16.671875 9.046875 -16.671875 C 10.640625 -16.671875 12.242188 -16.285156 13.859375 -15.515625 L 12.734375 -12.671875 C 12.117188 -12.960938 11.5 -13.21875 10.875 -13.4375 C 10.257812 -13.65625 9.648438 -13.765625 9.046875 -13.765625 Z M 9.046875 -13.765625 "/></g></g><g style="fill:#000000;fill-opacity:1;"><g transform="translate(101.022649, 46.524198)"><path style="stroke:none" d="M 15.53125 0 L 12.0625 0 L 12.0625 -7.09375 L 5.546875 -7.09375 L 5.546875 0 L 2.0625 0 L 2.0625 -16.4375 L 5.546875 -16.4375 L 5.546875 -9.984375 L 12.0625 -9.984375 L 12.0625 -16.4375 L 15.53125 -16.4375 Z M 15.53125 0 "/></g></g><g style="fill:#000000;fill-opacity:1;"><g transform="translate(126.540523, 46.524198)"><path style="stroke:none" d="M 9.046875 -13.765625 C 7.734375 -13.765625 6.71875 -13.269531 6 -12.28125 C 5.28125 -11.300781 4.921875 -9.929688 4.921875 -8.171875 C 4.921875 -4.503906 6.296875 -2.671875 9.046875 -2.671875 C 10.203125 -2.671875 11.597656 -2.960938 13.234375 -3.546875 L 13.234375 -0.625 C 11.890625 -0.0625 10.382812 0.21875 8.71875 0.21875 C 6.332031 0.21875 4.503906 -0.503906 3.234375 -1.953125 C 1.972656 -3.398438 1.34375 -5.476562 1.34375 -8.1875 C 1.34375 -9.894531 1.648438 -11.390625 2.265625 -12.671875 C 2.890625 -13.960938 3.785156 -14.953125 4.953125 -15.640625 C 6.117188 -16.328125 7.484375 -16.671875 9.046875 -16.671875 C 10.640625 -16.671875 12.242188 -16.285156 13.859375 -15.515625 L 12.734375 -12.671875 C 12.117188 -12.960938 11.5 -13.21875 10.875 -13.4375 C 10.257812 -13.65625 9.648438 -13.765625 9.046875 -13.765625 Z M 9.046875 -13.765625 "/></g></g><g style="fill:#000000;fill-opacity:1;"><g transform="translate(141.206241, 46.524198)"><path style="stroke:none" d="M 15.53125 0 L 12.0625 0 L 12.0625 -7.09375 L 5.546875 -7.09375 L 5.546875 0 L 2.0625 0 L 2.0625 -16.4375 L 5.546875 -16.4375 L 5.546875 -9.984375 L 12.0625 -9.984375 L 12.0625 -16.4375 L 15.53125 -16.4375 Z M 15.53125 0 "/></g></g><g style="fill:#000000;fill-opacity:1;"><g transform="translate(166.724115, 46.524198)"><path style="stroke:none" d="M 16.640625 0 L 12.21875 0 L 5.0625 -12.421875 L 4.96875 -12.421875 C 5.113281 -10.234375 5.1875 -8.671875 5.1875 -7.734375 L 5.1875 0 L 2.0625 0 L 2.0625 -16.4375 L 6.46875 -16.4375 L 13.59375 -4.125 L 13.671875 -4.125 C 13.566406 -6.257812 13.515625 -7.769531 13.515625 -8.65625 L 13.515625 -16.4375 L 16.640625 -16.4375 Z M 16.640625 0 "/></g></g><g style="fill:#000000;fill-opacity:1;"><g transform="translate(185.435547, 46.524198)"><path style="stroke:none" d="M 15.53125 0 L 12.0625 0 L 12.0625 -7.09375 L 5.546875 -7.09375 L 5.546875 0 L 2.0625 0 L 2.0625 -16.4375 L 5.546875 -16.4375 L 5.546875 -9.984375 L 12.0625 -9.984375 L 12.0625 -16.4375 L 15.53125 -16.4375 Z M 15.53125 0 "/></g></g><g style="fill:#000000;fill-opacity:1;"><g transform="translate(118.642086, 50.274198)"><path style="stroke:none" d="M 7.0625 -7.65625 C 7.0625 -7.039062 6.875 -6.515625 6.5 -6.078125 C 6.125 -5.648438 5.601562 -5.351562 4.9375 -5.1875 L 4.9375 -5.15625 C 5.726562 -5.050781 6.328125 -4.804688 6.734375 -4.421875 C 7.140625 -4.035156 7.34375 -3.519531 7.34375 -2.875 C 7.34375 -1.925781 7 -1.1875 6.3125 -0.65625 C 5.625 -0.125 4.644531 0.140625 3.375 0.140625 C 2.300781 0.140625 1.351562 -0.0351562 0.53125 -0.390625 L 0.53125 -2.171875 C 0.90625 -1.972656 1.320312 -1.8125 1.78125 -1.6875 C 2.238281 -1.570312 2.695312 -1.515625 3.15625 -1.515625 C 3.84375 -1.515625 4.347656 -1.628906 4.671875 -1.859375 C 5.003906 -2.097656 5.171875 -2.476562 5.171875 -3 C 5.171875 -3.457031 4.976562 -3.78125 4.59375 -3.96875 C 4.21875 -4.164062 3.617188 -4.265625 2.796875 -4.265625 L 2.046875 -4.265625 L 2.046875 -5.875 L 2.8125 -5.875 C 3.570312 -5.875 4.128906 -5.972656 4.484375 -6.171875 C 4.835938 -6.367188 5.015625 -6.710938 5.015625 -7.203125 C 5.015625 -7.941406 4.546875 -8.3125 3.609375 -8.3125 C 3.285156 -8.3125 2.957031 -8.253906 2.625 -8.140625 C 2.289062 -8.035156 1.914062 -7.851562 1.5 -7.59375 L 0.546875 -9.03125 C 1.441406 -9.675781 2.507812 -10 3.75 -10 C 4.769531 -10 5.578125 -9.789062 6.171875 -9.375 C 6.765625 -8.96875 7.0625 -8.394531 7.0625 -7.65625 Z M 7.0625 -7.65625 "/></g></g><g style="fill:#000000;fill-opacity:1;"><g transform="translate(158.825678, 50.274198)"><path style="stroke:none" d="M 7.453125 0 L 0.546875 0 L 0.546875 -1.453125 L 3.03125 -3.953125 C 3.757812 -4.703125 4.234375 -5.222656 4.453125 -5.515625 C 4.679688 -5.804688 4.84375 -6.070312 4.9375 -6.3125 C 5.039062 -6.5625 5.09375 -6.820312 5.09375 -7.09375 C 5.09375 -7.488281 4.984375 -7.78125 4.765625 -7.96875 C 4.546875 -8.164062 4.253906 -8.265625 3.890625 -8.265625 C 3.515625 -8.265625 3.144531 -8.175781 2.78125 -8 C 2.425781 -7.820312 2.050781 -7.570312 1.65625 -7.25 L 0.53125 -8.59375 C 1.007812 -9.007812 1.410156 -9.300781 1.734375 -9.46875 C 2.054688 -9.632812 2.40625 -9.765625 2.78125 -9.859375 C 3.15625 -9.953125 3.578125 -10 4.046875 -10 C 4.660156 -10 5.203125 -9.882812 5.671875 -9.65625 C 6.148438 -9.4375 6.519531 -9.125 6.78125 -8.71875 C 7.039062 -8.3125 7.171875 -7.847656 7.171875 -7.328125 C 7.171875 -6.878906 7.085938 -6.453125 6.921875 -6.046875 C 6.765625 -5.648438 6.519531 -5.242188 6.1875 -4.828125 C 5.851562 -4.410156 5.265625 -3.816406 4.421875 -3.046875 L 3.15625 -1.84375 L 3.15625 -1.75 L 7.453125 -1.75 Z M 7.453125 0 "/></g></g><g style="fill:#000000;fill-opacity:1;"><g transform="translate(203.052238, 50.274198)"><path style="stroke:none" d="M 7.453125 0 L 0.546875 0 L 0.546875 -1.453125 L 3.03125 -3.953125 C 3.757812 -4.703125 4.234375 -5.222656 4.453125 -5.515625 C 4.679688 -5.804688 4.84375 -6.070312 4.9375 -6.3125 C 5.039062 -6.5625 5.09375 -6.820312 5.09375 -7.09375 C 5.09375 -7.488281 4.984375 -7.78125 4.765625 -7.96875 C 4.546875 -8.164062 4.253906 -8.265625 3.890625 -8.265625 C 3.515625 -8.265625 3.144531 -8.175781 2.78125 -8 C 2.425781 -7.820312 2.050781 -7.570312 1.65625 -7.25 L 0.53125 -8.59375 C 1.007812 -9.007812 1.410156 -9.300781 1.734375 -9.46875 C 2.054688 -9.632812 2.40625 -9.765625 2.78125 -9.859375 C 3.15625 -9.953125 3.578125 -10 4.046875 -10 C 4.660156 -10 5.203125 -9.882812 5.671875 -9.65625 C 6.148438 -9.4375 6.519531 -9.125 6.78125 -8.71875 C 7.039062 -8.3125 7.171875 -7.847656 7.171875 -7.328125 C 7.171875 -6.878906 7.085938 -6.453125 6.921875 -6.046875 C 6.765625 -5.648438 6.519531 -5.242188 6.1875 -4.828125 C 5.851562 -4.410156 5.265625 -3.816406 4.421875 -3.046875 L 3.15625 -1.84375 L 3.15625 -1.75 L 7.453125 -1.75 Z M 7.453125 0 "/></g></g></g></svg>