<svg xmlns="http://www.w3.org/2000/svg" xmlns:xlink="http://www.w3.org/1999/xlink" width="400" zoomAndPan="magnify" viewBox="0 0 300 149.999998" height="200" preserveAspectRatio="xMidYMid meet" version="1.2"><defs/><g id="d3b0a79904"><rect x="0" width="300" y="0" height="149.999998" style="fill:#ffffff;fill-opacity:1;stroke:none;"/><rect x="0" width="300" y="0" height="149.999998" style="fill:#ffffff;fill-opacity:1;stroke:none;"/><g style="fill:#000000;fill-opacity:1;"><g transform="translate(99.03527, 82.648137)"><path style="stroke:none" d="M 0.5625 -3.828125 C 0.5625 -5.035156 0.738281 -6.164062 1.09375 -7.21875 C 1.445312 -8.28125 1.957031 -9.207031 2.625 -10 L 3.78125 -10 C 3.125 -9.113281 2.628906 -8.144531 2.296875 -7.09375 C 1.972656 -6.039062 1.8125 -4.957031 1.8125 -3.84375 C 1.8125 -2.75 1.976562 -1.679688 2.3125 -0.640625 C 2.644531 0.398438 3.128906 1.351562 3.765625 2.21875 L 2.625 2.21875 C 1.945312 1.4375 1.429688 0.53125 1.078125 -0.5 C 0.734375 -1.53125 0.5625 -2.640625 0.5625 -3.828125 Z M 0.5625 -3.828125 "/></g></g><g style="fill:#000000;fill-opacity:1;"><g transform="translate(103.230193, 82.648137)"><path style="stroke:none" d="M 5.640625 -9.03125 C 4.566406 -9.03125 3.722656 -8.671875 3.109375 -7.953125 C 2.492188 -7.234375 2.1875 -6.25 2.1875 -5 C 2.1875 -3.707031 2.484375 -2.710938 3.078125 -2.015625 C 3.671875 -1.316406 4.519531 -0.96875 5.625 -0.96875 C 6.332031 -0.96875 7.132812 -1.097656 8.03125 -1.359375 L 8.03125 -0.265625 C 7.601562 -0.109375 7.191406 -0.00390625 6.796875 0.046875 C 6.410156 0.109375 5.960938 0.140625 5.453125 0.140625 C 3.972656 0.140625 2.835938 -0.304688 2.046875 -1.203125 C 1.253906 -2.097656 0.859375 -3.367188 0.859375 -5.015625 C 0.859375 -6.046875 1.046875 -6.945312 1.421875 -7.71875 C 1.804688 -8.488281 2.359375 -9.082031 3.078125 -9.5 C 3.804688 -9.925781 4.664062 -10.140625 5.65625 -10.140625 C 6.707031 -10.140625 7.628906 -9.941406 8.421875 -9.546875 L 7.90625 -8.484375 C 7.113281 -8.847656 6.359375 -9.03125 5.640625 -9.03125 Z M 5.640625 -9.03125 "/></g></g><g style="fill:#000000;fill-opacity:1;"><g transform="translate(112.070959, 82.648137)"><path style="stroke:none" d="M 9 0 L 7.75 0 L 7.75 -4.65625 L 2.625 -4.65625 L 2.625 0 L 1.359375 0 L 1.359375 -10 L 2.625 -10 L 2.625 -5.765625 L 7.75 -5.765625 L 7.75 -10 L 9 -10 Z M 9 0 "/></g></g><g style="fill:#000000;fill-opacity:1;"><g transform="translate(127.254018, 82.648137)"><path style="stroke:none" d="M 3.640625 -3.828125 C 3.640625 -2.628906 3.460938 -1.515625 3.109375 -0.484375 C 2.753906 0.546875 2.242188 1.445312 1.578125 2.21875 L 0.4375 2.21875 C 1.0625 1.363281 1.539062 0.414062 1.875 -0.625 C 2.21875 -1.675781 2.390625 -2.75 2.390625 -3.84375 C 2.390625 -4.957031 2.222656 -6.039062 1.890625 -7.09375 C 1.566406 -8.144531 1.078125 -9.113281 0.421875 -10 L 1.578125 -10 C 2.242188 -9.195312 2.753906 -8.269531 3.109375 -7.21875 C 3.460938 -6.164062 3.640625 -5.035156 3.640625 -3.828125 Z M 3.640625 -3.828125 "/></g></g><g style="fill:#000000;fill-opacity:1;"><g transform="translate(122.449331, 84.898137)"><path style="stroke:none" d="M 4.140625 -4.59375 C 4.140625 -4.207031 4.03125 -3.890625 3.8125 -3.640625 C 3.601562 -3.398438 3.300781 -3.238281 2.90625 -3.15625 L 2.90625 -3.125 C 3.382812 -3.0625 3.738281 -2.90625 3.96875 -2.65625 C 4.207031 -2.414062 4.328125 -2.097656 4.328125 -1.703125 C 4.328125 -1.128906 4.128906 -0.6875 3.734375 -0.375 C 3.335938 -0.0703125 2.769531 0.078125 2.03125 0.078125 C 1.707031 0.078125 1.410156 0.0507812 1.140625 0 C 0.878906 -0.0390625 0.625 -0.117188 0.375 -0.234375 L 0.375 -0.9375 C 0.632812 -0.8125 0.90625 -0.710938 1.1875 -0.640625 C 1.476562 -0.566406 1.757812 -0.53125 2.03125 -0.53125 C 3.039062 -0.53125 3.546875 -0.925781 3.546875 -1.71875 C 3.546875 -2.425781 2.988281 -2.78125 1.875 -2.78125 L 1.296875 -2.78125 L 1.296875 -3.40625 L 1.890625 -3.40625 C 2.359375 -3.40625 2.722656 -3.503906 2.984375 -3.703125 C 3.253906 -3.910156 3.390625 -4.191406 3.390625 -4.546875 C 3.390625 -4.835938 3.289062 -5.0625 3.09375 -5.21875 C 2.90625 -5.382812 2.640625 -5.46875 2.296875 -5.46875 C 2.023438 -5.46875 1.773438 -5.429688 1.546875 -5.359375 C 1.328125 -5.285156 1.070312 -5.148438 0.78125 -4.953125 L 0.40625 -5.46875 C 0.65625 -5.65625 0.941406 -5.804688 1.265625 -5.921875 C 1.585938 -6.035156 1.925781 -6.09375 2.28125 -6.09375 C 2.875 -6.09375 3.332031 -5.957031 3.65625 -5.6875 C 3.976562 -5.414062 4.140625 -5.050781 4.140625 -4.59375 Z M 4.140625 -4.59375 "/></g></g><g style="fill:#000000;fill-opacity:1;"><g transform="translate(131.44933, 84.898137)"><path style="stroke:none" d="M 4.140625 -4.59375 C 4.140625 -4.207031 4.03125 -3.890625 3.8125 -3.640625 C 3.601562 -3.398438 3.300781 -3.238281 2.90625 -3.15625 L 2.90625 -3.125 C 3.382812 -3.0625 3.738281 -2.90625 3.96875 -2.65625 C 4.207031 -2.414062 4.328125 -2.097656 4.328125 -1.703125 C 4.328125 -1.128906 4.128906 -0.6875 3.734375 -0.375 C 3.335938 -0.0703125 2.769531 0.078125 2.03125 0.078125 C 1.707031 0.078125 1.410156 0.0507812 1.140625 0 C 0.878906 -0.0390625 0.625 -0.117188 0.375 -0.234375 L 0.375 -0.9375 C 0.632812 -0.8125 0.90625 -0.710938 1.1875 -0.640625 C 1.476562 -0.566406 1.757812 -0.53125 2.03125 -0.53125 C 3.039062 -0.53125 3.546875 -0.925781 3.546875 -1.71875 C 3.546875 -2.425781 2.988281 -2.78125 1.875 -2.78125 L 1.296875 -2.78125 L 1.296875 -3.40625 L 1.890625 -3.40625 C 2.359375 -3.40625 2.722656 -3.503906 2.984375 -3.703125 C 3.253906 -3.910156 3.390625 -4.191406 3.390625 -4.546875 C 3.390625 -4.835938 3.289062 -5.0625 3.09375 -5.21875 C 2.90625 -5.382812 2.640625 -5.46875 2.296875 -5.46875 C 2.023438 -5.46875 1.773438 -5.429688 1.546875 -5.359375 C 1.328125 -5.285156 1.070312 -5.148438 0.78125 -4.953125 L 0.40625 -5.46875 C 0.65625 -5.65625 0.941406 -5.804688 1.265625 -5.921875 C 1.585938 -6.035156 1.925781 -6.09375 2.28125 -6.09375 C 2.875 -6.09375 3.332031 -5.957031 3.65625 -5.6875 C 3.976562 -5.414062 4.140625 -5.050781 4.140625 -4.59375 Z M 4.140625 -4.59375 "/></g></g><g style="fill:#ff3131;fill-opacity:1;"><g transform="translate(157.33262, 83.970525)"><path style="stroke:none" d="M 10.125 0 L 7.4375 0 L 3.078125 -7.5625 L 3.015625 -7.5625 C 3.109375 -6.226562 3.15625 -5.273438 3.15625 -4.703125 L 3.15625 0 L 1.265625 0 L 1.265625 -10 L 3.9375 -10 L 8.265625 -2.515625 L 8.3125 -2.515625 C 8.25 -3.804688 8.21875 -4.722656 8.21875 -5.265625 L 8.21875 -10 L 10.125 -10 Z M 10.125 0 "/></g></g><g style="fill:#000000;fill-opacity:1;"><g transform="translate(136.265738, 83.970525)"><path style="stroke:none" d="M 5.640625 -9.03125 C 4.566406 -9.03125 3.722656 -8.671875 3.109375 -7.953125 C 2.492188 -7.234375 2.1875 -6.25 2.1875 -5 C 2.1875 -3.707031 2.484375 -2.710938 3.078125 -2.015625 C 3.671875 -1.316406 4.519531 -0.96875 5.625 -0.96875 C 6.332031 -0.96875 7.132812 -1.097656 8.03125 -1.359375 L 8.03125 -0.265625 C 7.601562 -0.109375 7.191406 -0.00390625 6.796875 0.046875 C 6.410156 0.109375 5.960938 0.140625 5.453125 0.140625 C 3.972656 0.140625 2.835938 -0.304688 2.046875 -1.203125 C 1.253906 -2.097656 0.859375 -3.367188 0.859375 -5.015625 C 0.859375 -6.046875 1.046875 -6.945312 1.421875 -7.71875 C 1.804688 -8.488281 2.359375 -9.082031 3.078125 -9.5 C 3.804688 -9.925781 4.664062 -10.140625 5.65625 -10.140625 C 6.707031 -10.140625 7.628906 -9.941406 8.421875 -9.546875 L 7.90625 -8.484375 C 7.113281 -8.847656 6.359375 -9.03125 5.640625 -9.03125 Z M 5.640625 -9.03125 "/></g></g><g style="fill:#000000;fill-opacity:1;"><g transform="translate(178.560021, 82.648137)"><path style="stroke:none" d="M 5.640625 -9.03125 C 4.566406 -9.03125 3.722656 -8.671875 3.109375 -7.953125 C 2.492188 -7.234375 2.1875 -6.25 2.1875 -5 C 2.1875 -3.707031 2.484375 -2.710938 3.078125 -2.015625 C 3.671875 -1.316406 4.519531 -0.96875 5.625 -0.96875 C 6.332031 -0.96875 7.132812 -1.097656 8.03125 -1.359375 L 8.03125 -0.265625 C 7.601562 -0.109375 7.191406 -0.00390625 6.796875 0.046875 C 6.410156 0.109375 5.960938 0.140625 5.453125 0.140625 C 3.972656 0.140625 2.835938 -0.304688 2.046875 -1.203125 C 1.253906 -2.097656 0.859375 -3.367188 0.859375 -5.015625 C 0.859375 -6.046875 1.046875 -6.945312 1.421875 -7.71875 C 1.804688 -8.488281 2.359375 -9.082031 3.078125 -9.5 C 3.804688 -9.925781 4.664062 -10.140625 5.65625 -10.140625 C 6.707031 -10.140625 7.628906 -9.941406 8.421875 -9.546875 L 7.90625 -8.484375 C 7.113281 -8.847656 6.359375 -9.03125 5.640625 -9.03125 Z M 5.640625 -9.03125 "/></g></g><g style="fill:#000000;fill-opacity:1;"><g transform="translate(192.212364, 82.648137)"><path style="stroke:none" d="M 9 0 L 7.75 0 L 7.75 -4.65625 L 2.625 -4.65625 L 2.625 0 L 1.359375 0 L 1.359375 -10 L 2.625 -10 L 2.625 -5.765625 L 7.75 -5.765625 L 7.75 -10 L 9 -10 Z M 9 0 "/></g></g><g style="fill:#000000;fill-opacity:1;"><g transform="translate(187.407677, 84.898137)"><path style="stroke:none" d="M 4.375 0 L 0.40625 0 L 0.40625 -0.609375 L 1.96875 -2.203125 C 2.445312 -2.679688 2.757812 -3.019531 2.90625 -3.21875 C 3.0625 -3.425781 3.175781 -3.625 3.25 -3.8125 C 3.332031 -4.007812 3.375 -4.21875 3.375 -4.4375 C 3.375 -4.757812 3.273438 -5.007812 3.078125 -5.1875 C 2.890625 -5.363281 2.632812 -5.453125 2.3125 -5.453125 C 2.0625 -5.453125 1.828125 -5.410156 1.609375 -5.328125 C 1.390625 -5.242188 1.140625 -5.097656 0.859375 -4.890625 L 0.46875 -5.375 C 1.03125 -5.851562 1.644531 -6.09375 2.3125 -6.09375 C 2.863281 -6.09375 3.300781 -5.945312 3.625 -5.65625 C 3.957031 -5.375 4.125 -4.984375 4.125 -4.484375 C 4.125 -4.222656 4.078125 -3.96875 3.984375 -3.71875 C 3.890625 -3.476562 3.742188 -3.234375 3.546875 -2.984375 C 3.359375 -2.734375 3.039062 -2.382812 2.59375 -1.9375 L 1.34375 -0.703125 L 1.34375 -0.671875 L 4.375 -0.671875 Z M 4.375 0 "/></g></g><g style="fill:#000000;fill-opacity:1;"><g transform="translate(202.595176, 84.898137)"><path style="stroke:none" d="M 2.3125 -3.6875 C 2.9375 -3.6875 3.425781 -3.523438 3.78125 -3.203125 C 4.144531 -2.890625 4.328125 -2.460938 4.328125 -1.921875 C 4.328125 -1.296875 4.128906 -0.804688 3.734375 -0.453125 C 3.335938 -0.0976562 2.785156 0.078125 2.078125 0.078125 C 1.410156 0.078125 0.894531 -0.0234375 0.53125 -0.234375 L 0.53125 -0.9375 C 0.726562 -0.820312 0.96875 -0.726562 1.25 -0.65625 C 1.539062 -0.582031 1.820312 -0.546875 2.09375 -0.546875 C 2.5625 -0.546875 2.925781 -0.65625 3.1875 -0.875 C 3.445312 -1.101562 3.578125 -1.425781 3.578125 -1.84375 C 3.578125 -2.65625 3.070312 -3.0625 2.0625 -3.0625 C 1.738281 -3.0625 1.398438 -3.019531 1.046875 -2.9375 L 0.671875 -3.171875 L 0.90625 -6 L 3.90625 -6 L 3.90625 -5.328125 L 1.53125 -5.328125 L 1.390625 -3.59375 C 1.703125 -3.65625 2.007812 -3.6875 2.3125 -3.6875 Z M 2.3125 -3.6875 "/></g></g><g style="fill:#000000;fill-opacity:1;"><g transform="translate(157.33262, 62.523896)"><path style="stroke:none" d="M 5.640625 -9.03125 C 4.566406 -9.03125 3.722656 -8.671875 3.109375 -7.953125 C 2.492188 -7.234375 2.1875 -6.25 2.1875 -5 C 2.1875 -3.707031 2.484375 -2.710938 3.078125 -2.015625 C 3.671875 -1.316406 4.519531 -0.96875 5.625 -0.96875 C 6.332031 -0.96875 7.132812 -1.097656 8.03125 -1.359375 L 8.03125 -0.265625 C 7.601562 -0.109375 7.191406 -0.00390625 6.796875 0.046875 C 6.410156 0.109375 5.960938 0.140625 5.453125 0.140625 C 3.972656 0.140625 2.835938 -0.304688 2.046875 -1.203125 C 1.253906 -2.097656 0.859375 -3.367188 0.859375 -5.015625 C 0.859375 -6.046875 1.046875 -6.945312 1.421875 -7.71875 C 1.804688 -8.488281 2.359375 -9.082031 3.078125 -9.5 C 3.804688 -9.925781 4.664062 -10.140625 5.65625 -10.140625 C 6.707031 -10.140625 7.628906 -9.941406 8.421875 -9.546875 L 7.90625 -8.484375 C 7.113281 -8.847656 6.359375 -9.03125 5.640625 -9.03125 Z M 5.640625 -9.03125 "/></g></g><g style="fill:#000000;fill-opacity:1;"><g transform="translate(166.173386, 62.523896)"><path style="stroke:none" d="M 9 0 L 7.75 0 L 7.75 -4.65625 L 2.625 -4.65625 L 2.625 0 L 1.359375 0 L 1.359375 -10 L 2.625 -10 L 2.625 -5.765625 L 7.75 -5.765625 L 7.75 -10 L 9 -10 Z M 9 0 "/></g></g><g style="fill:#000000;fill-opacity:1;"><g transform="translate(176.551369, 64.773896)"><path style="stroke:none" d="M 4.140625 -4.59375 C 4.140625 -4.207031 4.03125 -3.890625 3.8125 -3.640625 C 3.601562 -3.398438 3.300781 -3.238281 2.90625 -3.15625 L 2.90625 -3.125 C 3.382812 -3.0625 3.738281 -2.90625 3.96875 -2.65625 C 4.207031 -2.414062 4.328125 -2.097656 4.328125 -1.703125 C 4.328125 -1.128906 4.128906 -0.6875 3.734375 -0.375 C 3.335938 -0.0703125 2.769531 0.078125 2.03125 0.078125 C 1.707031 0.078125 1.410156 0.0507812 1.140625 0 C 0.878906 -0.0390625 0.625 -0.117188 0.375 -0.234375 L 0.375 -0.9375 C 0.632812 -0.8125 0.90625 -0.710938 1.1875 -0.640625 C 1.476562 -0.566406 1.757812 -0.53125 2.03125 -0.53125 C 3.039062 -0.53125 3.546875 -0.925781 3.546875 -1.71875 C 3.546875 -2.425781 2.988281 -2.78125 1.875 -2.78125 L 1.296875 -2.78125 L 1.296875 -3.40625 L 1.890625 -3.40625 C 2.359375 -3.40625 2.722656 -3.503906 2.984375 -3.703125 C 3.253906 -3.910156 3.390625 -4.191406 3.390625 -4.546875 C 3.390625 -4.835938 3.289062 -5.0625 3.09375 -5.21875 C 2.90625 -5.382812 2.640625 -5.46875 2.296875 -5.46875 C 2.023438 -5.46875 1.773438 -5.429688 1.546875 -5.359375 C 1.328125 -5.285156 1.070312 -5.148438 0.78125 -4.953125 L 0.40625 -5.46875 C 0.65625 -5.65625 0.941406 -5.804688 1.265625 -5.921875 C 1.585938 -6.035156 1.925781 -6.09375 2.28125 -6.09375 C 2.875 -6.09375 3.332031 -5.957031 3.65625 -5.6875 C 3.976562 -5.414062 4.140625 -5.050781 4.140625 -4.59375 Z M 4.140625 -4.59375 "/></g></g><path style="fill:none;stroke-width:1;stroke-linecap:butt;stroke-linejoin:miter;stroke:#000000;stroke-opacity:1;stroke-miterlimit:4;" d="M -0.000794833 0.499264 L 9.129487 0.499264 " transform="matrix(0.739726,-0.000000000000002293,0.000000000000002293,0.739726,168.711525,79.095525)"/><path style="fill:none;stroke-width:1;stroke-linecap:butt;stroke-linejoin:miter;stroke:#000000;stroke-opacity:1;stroke-miterlimit:4;" d="M -0.00254754 0.502584 L 9.133015 0.502584 " transform="matrix(0.739726,-0.000000000000002293,0.000000000000002293,0.739726,147.798759,79.483694)"/><path style="fill:none;stroke-width:1;stroke-linecap:butt;stroke-linejoin:miter;stroke:#000000;stroke-opacity:1;stroke-miterlimit:4;" d="M -0.00171054 0.501892 L 9.133852 0.501892 " transform="matrix(0.00000000129107,0.739726,-0.739726,0.00000000129107,163.0197,66.376265)"/></g></svg>