<svg xmlns="http://www.w3.org/2000/svg" xmlns:xlink="http://www.w3.org/1999/xlink" width="400" zoomAndPan="magnify" viewBox="0 0 300 149.999998" height="200" preserveAspectRatio="xMidYMid meet" version="1.2"><defs/><g id="07c5c8179c"><rect x="0" width="300" y="0" height="149.999998" style="fill:#ffffff;fill-opacity:1;stroke:none;"/><rect x="0" width="300" y="0" height="149.999998" style="fill:#ffffff;fill-opacity:1;stroke:none;"/><g style="fill:#000000;fill-opacity:1;"><g transform="translate(123.568354, 71.150038)"><path style="stroke:none" d="M 5.640625 -9.03125 C 4.566406 -9.03125 3.722656 -8.671875 3.109375 -7.953125 C 2.492188 -7.234375 2.1875 -6.25 2.1875 -5 C 2.1875 -3.707031 2.484375 -2.710938 3.078125 -2.015625 C 3.671875 -1.316406 4.519531 -0.96875 5.625 -0.96875 C 6.332031 -0.96875 7.132812 -1.097656 8.03125 -1.359375 L 8.03125 -0.265625 C 7.601562 -0.109375 7.191406 -0.00390625 6.796875 0.046875 C 6.410156 0.109375 5.960938 0.140625 5.453125 0.140625 C 3.972656 0.140625 2.835938 -0.304688 2.046875 -1.203125 C 1.253906 -2.097656 0.859375 -3.367188 0.859375 -5.015625 C 0.859375 -6.046875 1.046875 -6.945312 1.421875 -7.71875 C 1.804688 -8.488281 2.359375 -9.082031 3.078125 -9.5 C 3.804688 -9.925781 4.664062 -10.140625 5.65625 -10.140625 C 6.707031 -10.140625 7.628906 -9.941406 8.421875 -9.546875 L 7.90625 -8.484375 C 7.113281 -8.847656 6.359375 -9.03125 5.640625 -9.03125 Z M 5.640625 -9.03125 "/></g></g><g style="fill:#000000;fill-opacity:1;"><g transform="translate(137.220697, 71.150038)"><path style="stroke:none" d="M 9 0 L 7.75 0 L 7.75 -4.65625 L 2.625 -4.65625 L 2.625 0 L 1.359375 0 L 1.359375 -10 L 2.625 -10 L 2.625 -5.765625 L 7.75 -5.765625 L 7.75 -10 L 9 -10 Z M 9 0 "/></g></g><g style="fill:#000000;fill-opacity:1;"><g transform="translate(132.416009, 73.400038)"><path style="stroke:none" d="M 0.46875 -2.5625 C 0.46875 -4.914062 1.378906 -6.09375 3.203125 -6.09375 C 3.523438 -6.09375 3.773438 -6.066406 3.953125 -6.015625 L 3.953125 -5.375 C 3.742188 -5.445312 3.5 -5.484375 3.21875 -5.484375 C 2.582031 -5.484375 2.09375 -5.285156 1.75 -4.890625 C 1.414062 -4.503906 1.234375 -3.890625 1.203125 -3.046875 L 1.25 -3.046875 C 1.550781 -3.515625 2.023438 -3.75 2.671875 -3.75 C 3.210938 -3.75 3.632812 -3.582031 3.9375 -3.25 C 4.25 -2.925781 4.40625 -2.488281 4.40625 -1.9375 C 4.40625 -1.3125 4.234375 -0.816406 3.890625 -0.453125 C 3.554688 -0.0976562 3.09375 0.078125 2.5 0.078125 C 2.09375 0.078125 1.734375 -0.0234375 1.421875 -0.234375 C 1.117188 -0.441406 0.882812 -0.742188 0.71875 -1.140625 C 0.550781 -1.546875 0.46875 -2.019531 0.46875 -2.5625 Z M 2.5 -0.53125 C 2.875 -0.53125 3.164062 -0.648438 3.375 -0.890625 C 3.582031 -1.140625 3.6875 -1.488281 3.6875 -1.9375 C 3.6875 -2.332031 3.582031 -2.632812 3.375 -2.84375 C 3.175781 -3.0625 2.890625 -3.171875 2.515625 -3.171875 C 2.273438 -3.171875 2.054688 -3.117188 1.859375 -3.015625 C 1.660156 -2.921875 1.5 -2.785156 1.375 -2.609375 C 1.257812 -2.441406 1.203125 -2.265625 1.203125 -2.078125 C 1.203125 -1.804688 1.257812 -1.550781 1.375 -1.3125 C 1.488281 -1.070312 1.640625 -0.878906 1.828125 -0.734375 C 2.023438 -0.597656 2.25 -0.53125 2.5 -0.53125 Z M 2.5 -0.53125 "/></g></g><g style="fill:#000000;fill-opacity:1;"><g transform="translate(147.603509, 73.400038)"><path style="stroke:none" d="M 2.3125 -3.6875 C 2.9375 -3.6875 3.425781 -3.523438 3.78125 -3.203125 C 4.144531 -2.890625 4.328125 -2.460938 4.328125 -1.921875 C 4.328125 -1.296875 4.128906 -0.804688 3.734375 -0.453125 C 3.335938 -0.0976562 2.785156 0.078125 2.078125 0.078125 C 1.410156 0.078125 0.894531 -0.0234375 0.53125 -0.234375 L 0.53125 -0.9375 C 0.726562 -0.820312 0.96875 -0.726562 1.25 -0.65625 C 1.539062 -0.582031 1.820312 -0.546875 2.09375 -0.546875 C 2.5625 -0.546875 2.925781 -0.65625 3.1875 -0.875 C 3.445312 -1.101562 3.578125 -1.425781 3.578125 -1.84375 C 3.578125 -2.65625 3.070312 -3.0625 2.0625 -3.0625 C 1.738281 -3.0625 1.398438 -3.019531 1.046875 -2.9375 L 0.671875 -3.171875 L 0.90625 -6 L 3.90625 -6 L 3.90625 -5.328125 L 1.53125 -5.328125 L 1.390625 -3.59375 C 1.703125 -3.65625 2.007812 -3.6875 2.3125 -3.6875 Z M 2.3125 -3.6875 "/></g></g><g style="fill:#ff3131;fill-opacity:1;"><g transform="translate(152.568128, 71.150038)"><path style="stroke:none" d="M 10.125 0 L 7.4375 0 L 3.078125 -7.5625 L 3.015625 -7.5625 C 3.109375 -6.226562 3.15625 -5.273438 3.15625 -4.703125 L 3.15625 0 L 1.265625 0 L 1.265625 -10 L 3.9375 -10 L 8.265625 -2.515625 L 8.3125 -2.515625 C 8.25 -3.804688 8.21875 -4.722656 8.21875 -5.265625 L 8.21875 -10 L 10.125 -10 Z M 10.125 0 "/></g></g><g style="fill:#ff3131;fill-opacity:1;"><g transform="translate(163.943612, 71.150038)"><path style="stroke:none" d="M 9.453125 0 L 7.328125 0 L 7.328125 -4.3125 L 3.375 -4.3125 L 3.375 0 L 1.265625 0 L 1.265625 -10 L 3.375 -10 L 3.375 -6.078125 L 7.328125 -6.078125 L 7.328125 -10 L 9.453125 -10 Z M 9.453125 0 "/></g></g><g style="fill:#ff3131;fill-opacity:1;"><g transform="translate(174.65797, 73.400038)"><path style="stroke:none" d="M 4.53125 0 L 0.34375 0 L 0.34375 -0.875 L 1.84375 -2.40625 C 2.289062 -2.863281 2.582031 -3.179688 2.71875 -3.359375 C 2.851562 -3.535156 2.953125 -3.695312 3.015625 -3.84375 C 3.078125 -4 3.109375 -4.15625 3.109375 -4.3125 C 3.109375 -4.550781 3.039062 -4.726562 2.90625 -4.84375 C 2.769531 -4.96875 2.59375 -5.03125 2.375 -5.03125 C 2.144531 -5.03125 1.914062 -4.972656 1.6875 -4.859375 C 1.46875 -4.753906 1.242188 -4.601562 1.015625 -4.40625 L 0.3125 -5.234375 C 0.613281 -5.484375 0.859375 -5.660156 1.046875 -5.765625 C 1.242188 -5.867188 1.457031 -5.945312 1.6875 -6 C 1.914062 -6.0625 2.175781 -6.09375 2.46875 -6.09375 C 2.84375 -6.09375 3.171875 -6.019531 3.453125 -5.875 C 3.742188 -5.738281 3.96875 -5.546875 4.125 -5.296875 C 4.28125 -5.054688 4.359375 -4.78125 4.359375 -4.46875 C 4.359375 -4.1875 4.3125 -3.925781 4.21875 -3.6875 C 4.125 -3.445312 3.972656 -3.195312 3.765625 -2.9375 C 3.554688 -2.6875 3.195312 -2.320312 2.6875 -1.84375 L 1.921875 -1.125 L 1.921875 -1.0625 L 4.53125 -1.0625 Z M 4.53125 0 "/></g></g></g></svg>