<svg xmlns="http://www.w3.org/2000/svg" xmlns:xlink="http://www.w3.org/1999/xlink" width="400" zoomAndPan="magnify" viewBox="0 0 300 149.999998" height="200" preserveAspectRatio="xMidYMid meet" version="1.2"><defs><clipPath id="337ed9f8f1"><path d="M 132.101562 54.335938 L 168.101562 54.335938 L 168.101562 95.585938 L 132.101562 95.585938 Z M 132.101562 54.335938 "/></clipPath></defs><g id="726aa5db41"><rect x="0" width="300" y="0" height="149.999998" style="fill:#ffffff;fill-opacity:1;stroke:none;"/><rect x="0" width="300" y="0" height="149.999998" style="fill:#ffffff;fill-opacity:1;stroke:none;"/><g clip-rule="nonzero" clip-path="url(#337ed9f8f1)"><path style=" stroke:none;fill-rule:nonzero;fill:#000000;fill-opacity:1;" d="M 150.101562 54.335938 L 132.101562 64.648438 L 132.101562 85.273438 L 150.101562 95.585938 L 168.097656 85.273438 L 168.097656 64.648438 Z M 166.382812 84.292969 L 150.101562 93.621094 L 133.816406 84.292969 L 133.816406 65.632812 L 150.101562 56.300781 L 166.382812 65.632812 Z M 138.53125 81.101562 L 150.527344 87.976562 L 149.671875 89.449219 L 137.671875 82.574219 Z M 149.671875 60.476562 L 150.527344 61.949219 L 138.53125 68.824219 L 137.671875 67.351562 Z M 162.957031 81.835938 L 161.242188 81.835938 L 161.242188 68.085938 L 162.957031 68.085938 Z M 162.957031 81.835938 "/></g><g style="fill:#ff3131;fill-opacity:1;"><g transform="translate(143.751513, 46.299433)"><path style="stroke:none" d="M 10.125 0 L 7.4375 0 L 3.078125 -7.5625 L 3.015625 -7.5625 C 3.109375 -6.226562 3.15625 -5.273438 3.15625 -4.703125 L 3.15625 0 L 1.265625 0 L 1.265625 -10 L 3.9375 -10 L 8.265625 -2.515625 L 8.3125 -2.515625 C 8.25 -3.804688 8.21875 -4.722656 8.21875 -5.265625 L 8.21875 -10 L 10.125 -10 Z M 10.125 0 "/></g></g><g style="fill:#ff3131;fill-opacity:1;"><g transform="translate(155.126996, 46.299433)"><path style="stroke:none" d="M 9.453125 0 L 7.328125 0 L 7.328125 -4.3125 L 3.375 -4.3125 L 3.375 0 L 1.265625 0 L 1.265625 -10 L 3.375 -10 L 3.375 -6.078125 L 7.328125 -6.078125 L 7.328125 -10 L 9.453125 -10 Z M 9.453125 0 "/></g></g><g style="fill:#ff3131;fill-opacity:1;"><g transform="translate(165.832932, 46.299433)"><path style="stroke:none" d="M 7.546875 0 L 0.5625 0 L 0.5625 -1.46875 L 3.0625 -4 C 3.8125 -4.757812 4.300781 -5.285156 4.53125 -5.578125 C 4.757812 -5.878906 4.921875 -6.15625 5.015625 -6.40625 C 5.117188 -6.65625 5.171875 -6.914062 5.171875 -7.1875 C 5.171875 -7.582031 5.054688 -7.878906 4.828125 -8.078125 C 4.609375 -8.273438 4.316406 -8.375 3.953125 -8.375 C 3.566406 -8.375 3.191406 -8.285156 2.828125 -8.109375 C 2.460938 -7.929688 2.082031 -7.675781 1.6875 -7.34375 L 0.53125 -8.703125 C 1.019531 -9.128906 1.425781 -9.425781 1.75 -9.59375 C 2.082031 -9.769531 2.4375 -9.90625 2.8125 -10 C 3.195312 -10.09375 3.628906 -10.140625 4.109375 -10.140625 C 4.722656 -10.140625 5.269531 -10.023438 5.75 -9.796875 C 6.226562 -9.566406 6.597656 -9.242188 6.859375 -8.828125 C 7.128906 -8.421875 7.265625 -7.957031 7.265625 -7.4375 C 7.265625 -6.96875 7.179688 -6.53125 7.015625 -6.125 C 6.859375 -5.726562 6.609375 -5.316406 6.265625 -4.890625 C 5.929688 -4.472656 5.335938 -3.867188 4.484375 -3.078125 L 3.1875 -1.875 L 3.1875 -1.78125 L 7.546875 -1.78125 Z M 7.546875 0 "/></g></g><path style="fill:none;stroke-width:2;stroke-linecap:butt;stroke-linejoin:miter;stroke:#000000;stroke-opacity:1;stroke-miterlimit:4;" d="M 0.00113074 0.9985 L 7.11164 1.000404 " transform="matrix(-0.0133824,-0.73834,0.73834,-0.0133824,149.297939,55.494666)"/></g></svg>