<svg xmlns="http://www.w3.org/2000/svg" xmlns:xlink="http://www.w3.org/1999/xlink" width="400" zoomAndPan="magnify" viewBox="0 0 300 149.999998" height="200" preserveAspectRatio="xMidYMid meet" version="1.2"><metadata><ContainsAiGeneratedContent>Yes</ContainsAiGeneratedContent></metadata><defs/><g id="fa62fe966e"><g style="fill:#000000;fill-opacity:1;"><g transform="translate(95.195423, 71.34577)"><path style="stroke:none" d="M 10.765625 -8 L 9.359375 -8 C 9.242188 -8.539062 9.023438 -8.992188 8.703125 -9.359375 C 8.390625 -9.722656 8.003906 -10 7.546875 -10.1875 C 7.085938 -10.382812 6.601562 -10.484375 6.09375 -10.484375 C 5.382812 -10.484375 4.742188 -10.300781 4.171875 -9.9375 C 3.609375 -9.582031 3.15625 -9.054688 2.8125 -8.359375 C 2.476562 -7.671875 2.3125 -6.820312 2.3125 -5.8125 C 2.3125 -4.8125 2.476562 -3.960938 2.8125 -3.265625 C 3.15625 -2.578125 3.609375 -2.050781 4.171875 -1.6875 C 4.742188 -1.332031 5.382812 -1.15625 6.09375 -1.15625 C 6.601562 -1.15625 7.085938 -1.25 7.546875 -1.4375 C 8.003906 -1.632812 8.390625 -1.914062 8.703125 -2.28125 C 9.023438 -2.644531 9.242188 -3.097656 9.359375 -3.640625 L 10.765625 -3.640625 C 10.628906 -2.835938 10.335938 -2.15625 9.890625 -1.59375 C 9.453125 -1.03125 8.90625 -0.597656 8.25 -0.296875 C 7.59375 0.00390625 6.875 0.15625 6.09375 0.15625 C 5.101562 0.15625 4.21875 -0.0820312 3.4375 -0.5625 C 2.664062 -1.050781 2.054688 -1.742188 1.609375 -2.640625 C 1.171875 -3.535156 0.953125 -4.59375 0.953125 -5.8125 C 0.953125 -7.039062 1.171875 -8.101562 1.609375 -9 C 2.054688 -9.894531 2.664062 -10.582031 3.4375 -11.0625 C 4.21875 -11.550781 5.101562 -11.796875 6.09375 -11.796875 C 6.875 -11.796875 7.59375 -11.644531 8.25 -11.34375 C 8.90625 -11.039062 9.453125 -10.601562 9.890625 -10.03125 C 10.335938 -9.46875 10.628906 -8.789062 10.765625 -8 Z M 10.765625 -8 "/></g></g><g style="fill:#000000;fill-opacity:1;"><g transform="translate(106.828846, 71.34577)"><path style="stroke:none" d="M 1.40625 0 L 1.40625 -11.640625 L 2.8125 -11.640625 L 2.8125 -6.453125 L 9.015625 -6.453125 L 9.015625 -11.640625 L 10.4375 -11.640625 L 10.4375 0 L 9.015625 0 L 9.015625 -5.203125 L 2.8125 -5.203125 L 2.8125 0 Z M 1.40625 0 "/></g></g><g style="fill:#000000;fill-opacity:1;"><g transform="translate(139.050844, 70.409352)"><path style="stroke:none" d="M 10.765625 -8 L 9.359375 -8 C 9.242188 -8.539062 9.023438 -8.992188 8.703125 -9.359375 C 8.390625 -9.722656 8.003906 -10 7.546875 -10.1875 C 7.085938 -10.382812 6.601562 -10.484375 6.09375 -10.484375 C 5.382812 -10.484375 4.742188 -10.300781 4.171875 -9.9375 C 3.609375 -9.582031 3.15625 -9.054688 2.8125 -8.359375 C 2.476562 -7.671875 2.3125 -6.820312 2.3125 -5.8125 C 2.3125 -4.8125 2.476562 -3.960938 2.8125 -3.265625 C 3.15625 -2.578125 3.609375 -2.050781 4.171875 -1.6875 C 4.742188 -1.332031 5.382812 -1.15625 6.09375 -1.15625 C 6.601562 -1.15625 7.085938 -1.25 7.546875 -1.4375 C 8.003906 -1.632812 8.390625 -1.914062 8.703125 -2.28125 C 9.023438 -2.644531 9.242188 -3.097656 9.359375 -3.640625 L 10.765625 -3.640625 C 10.628906 -2.835938 10.335938 -2.15625 9.890625 -1.59375 C 9.453125 -1.03125 8.90625 -0.597656 8.25 -0.296875 C 7.59375 0.00390625 6.875 0.15625 6.09375 0.15625 C 5.101562 0.15625 4.21875 -0.0820312 3.4375 -0.5625 C 2.664062 -1.050781 2.054688 -1.742188 1.609375 -2.640625 C 1.171875 -3.535156 0.953125 -4.59375 0.953125 -5.8125 C 0.953125 -7.039062 1.171875 -8.101562 1.609375 -9 C 2.054688 -9.894531 2.664062 -10.582031 3.4375 -11.0625 C 4.21875 -11.550781 5.101562 -11.796875 6.09375 -11.796875 C 6.875 -11.796875 7.59375 -11.644531 8.25 -11.34375 C 8.90625 -11.039062 9.453125 -10.601562 9.890625 -10.03125 C 10.335938 -9.46875 10.628906 -8.789062 10.765625 -8 Z M 10.765625 -8 "/></g></g><g style="fill:#000000;fill-opacity:1;"><g transform="translate(150.684266, 70.409352)"><path style="stroke:none" d="M 11.234375 -5.8125 C 11.234375 -4.59375 11.007812 -3.535156 10.5625 -2.640625 C 10.113281 -1.742188 9.503906 -1.050781 8.734375 -0.5625 C 7.960938 -0.0820312 7.082031 0.15625 6.09375 0.15625 C 5.101562 0.15625 4.21875 -0.0820312 3.4375 -0.5625 C 2.664062 -1.050781 2.054688 -1.742188 1.609375 -2.640625 C 1.171875 -3.535156 0.953125 -4.59375 0.953125 -5.8125 C 0.953125 -7.039062 1.171875 -8.101562 1.609375 -9 C 2.054688 -9.894531 2.664062 -10.582031 3.4375 -11.0625 C 4.21875 -11.550781 5.101562 -11.796875 6.09375 -11.796875 C 7.082031 -11.796875 7.960938 -11.550781 8.734375 -11.0625 C 9.503906 -10.582031 10.113281 -9.894531 10.5625 -9 C 11.007812 -8.101562 11.234375 -7.039062 11.234375 -5.8125 Z M 9.859375 -5.8125 C 9.859375 -6.820312 9.691406 -7.671875 9.359375 -8.359375 C 9.023438 -9.054688 8.570312 -9.582031 8 -9.9375 C 7.425781 -10.300781 6.789062 -10.484375 6.09375 -10.484375 C 5.382812 -10.484375 4.742188 -10.300781 4.171875 -9.9375 C 3.609375 -9.582031 3.15625 -9.054688 2.8125 -8.359375 C 2.476562 -7.671875 2.3125 -6.820312 2.3125 -5.8125 C 2.3125 -4.8125 2.476562 -3.960938 2.8125 -3.265625 C 3.15625 -2.578125 3.609375 -2.050781 4.171875 -1.6875 C 4.742188 -1.332031 5.382812 -1.15625 6.09375 -1.15625 C 6.789062 -1.15625 7.425781 -1.332031 8 -1.6875 C 8.570312 -2.050781 9.023438 -2.578125 9.359375 -3.265625 C 9.691406 -3.960938 9.859375 -4.8125 9.859375 -5.8125 Z M 9.859375 -5.8125 "/></g></g><g style="fill:#000000;fill-opacity:1;"><g transform="translate(162.863011, 70.409352)"><path style="stroke:none" d="M 11.234375 -5.8125 C 11.234375 -4.59375 11.007812 -3.535156 10.5625 -2.640625 C 10.113281 -1.742188 9.503906 -1.050781 8.734375 -0.5625 C 7.960938 -0.0820312 7.082031 0.15625 6.09375 0.15625 C 5.101562 0.15625 4.21875 -0.0820312 3.4375 -0.5625 C 2.664062 -1.050781 2.054688 -1.742188 1.609375 -2.640625 C 1.171875 -3.535156 0.953125 -4.59375 0.953125 -5.8125 C 0.953125 -7.039062 1.171875 -8.101562 1.609375 -9 C 2.054688 -9.894531 2.664062 -10.582031 3.4375 -11.0625 C 4.21875 -11.550781 5.101562 -11.796875 6.09375 -11.796875 C 7.082031 -11.796875 7.960938 -11.550781 8.734375 -11.0625 C 9.503906 -10.582031 10.113281 -9.894531 10.5625 -9 C 11.007812 -8.101562 11.234375 -7.039062 11.234375 -5.8125 Z M 9.859375 -5.8125 C 9.859375 -6.820312 9.691406 -7.671875 9.359375 -8.359375 C 9.023438 -9.054688 8.570312 -9.582031 8 -9.9375 C 7.425781 -10.300781 6.789062 -10.484375 6.09375 -10.484375 C 5.382812 -10.484375 4.742188 -10.300781 4.171875 -9.9375 C 3.609375 -9.582031 3.15625 -9.054688 2.8125 -8.359375 C 2.476562 -7.671875 2.3125 -6.820312 2.3125 -5.8125 C 2.3125 -4.8125 2.476562 -3.960938 2.8125 -3.265625 C 3.15625 -2.578125 3.609375 -2.050781 4.171875 -1.6875 C 4.742188 -1.332031 5.382812 -1.15625 6.09375 -1.15625 C 6.789062 -1.15625 7.425781 -1.332031 8 -1.6875 C 8.570312 -2.050781 9.023438 -2.578125 9.359375 -3.265625 C 9.691406 -3.960938 9.859375 -4.8125 9.859375 -5.8125 Z M 9.859375 -5.8125 "/></g></g><g style="fill:#000000;fill-opacity:1;"><g transform="translate(175.041755, 70.409352)"><path style="stroke:none" d="M 1.40625 0 L 1.40625 -11.640625 L 2.8125 -11.640625 L 2.8125 -6.453125 L 9.015625 -6.453125 L 9.015625 -11.640625 L 10.4375 -11.640625 L 10.4375 0 L 9.015625 0 L 9.015625 -5.203125 L 2.8125 -5.203125 L 2.8125 0 Z M 1.40625 0 "/></g></g><g style="fill:#000000;fill-opacity:1;"><g transform="translate(94.339955, 97.260992)"><path style="stroke:none" d="M 10.640625 -11.640625 L 10.640625 0 L 9.265625 0 L 2.9375 -9.140625 L 2.8125 -9.140625 L 2.8125 0 L 1.40625 0 L 1.40625 -11.640625 L 2.765625 -11.640625 L 9.140625 -2.484375 L 9.25 -2.484375 L 9.25 -11.640625 Z M 10.640625 -11.640625 "/></g></g><g style="fill:#000000;fill-opacity:1;"><g transform="translate(106.382367, 97.260992)"><path style="stroke:none" d="M 1.40625 0 L 1.40625 -11.640625 L 2.8125 -11.640625 L 2.8125 -6.453125 L 9.015625 -6.453125 L 9.015625 -11.640625 L 10.4375 -11.640625 L 10.4375 0 L 9.015625 0 L 9.015625 -5.203125 L 2.8125 -5.203125 L 2.8125 0 Z M 1.40625 0 "/></g></g><g style="fill:#000000;fill-opacity:1;"><g transform="translate(118.222767, 99.510992)"><path style="stroke:none" d="M 0.71875 0 L 0.71875 -0.609375 L 3.03125 -3.140625 C 3.300781 -3.429688 3.519531 -3.6875 3.6875 -3.90625 C 3.863281 -4.125 3.992188 -4.328125 4.078125 -4.515625 C 4.160156 -4.710938 4.203125 -4.921875 4.203125 -5.140625 C 4.203125 -5.503906 4.070312 -5.796875 3.8125 -6.015625 C 3.5625 -6.234375 3.25 -6.34375 2.875 -6.34375 C 2.46875 -6.34375 2.144531 -6.21875 1.90625 -5.96875 C 1.664062 -5.726562 1.546875 -5.410156 1.546875 -5.015625 L 0.75 -5.015625 C 0.75 -5.421875 0.84375 -5.773438 1.03125 -6.078125 C 1.21875 -6.390625 1.472656 -6.632812 1.796875 -6.8125 C 2.128906 -6.988281 2.5 -7.078125 2.90625 -7.078125 C 3.3125 -7.078125 3.671875 -6.988281 3.984375 -6.8125 C 4.304688 -6.632812 4.554688 -6.398438 4.734375 -6.109375 C 4.910156 -5.816406 5 -5.492188 5 -5.140625 C 5 -4.878906 4.953125 -4.625 4.859375 -4.375 C 4.765625 -4.132812 4.601562 -3.863281 4.375 -3.5625 C 4.15625 -3.269531 3.847656 -2.910156 3.453125 -2.484375 L 1.875 -0.796875 L 1.875 -0.75 L 5.125 -0.75 L 5.125 0 Z M 0.71875 0 "/></g></g><path style="fill:none;stroke-width:1;stroke-linecap:butt;stroke-linejoin:miter;stroke:#000000;stroke-opacity:1;stroke-miterlimit:4;" d="M -0.00021595 0.499721 L 9.812285 0.499721 " transform="matrix(0.75,0.000000000000008688,-0.000000000000008688,0.75,126.636881,65.722865)"/><path style="fill:none;stroke-width:1;stroke-linecap:butt;stroke-linejoin:miter;stroke:#000000;stroke-opacity:1;stroke-miterlimit:4;" d="M -0.00109123 0.501238 L 9.816618 0.501238 " transform="matrix(0,0.75,-0.75,0,101.106397,75.000818)"/><g style="fill:#000000;fill-opacity:1;"><g transform="translate(51.178224, 71.34577)"><path style="stroke:none" d="M 10.765625 -8 L 9.359375 -8 C 9.242188 -8.539062 9.023438 -8.992188 8.703125 -9.359375 C 8.390625 -9.722656 8.003906 -10 7.546875 -10.1875 C 7.085938 -10.382812 6.601562 -10.484375 6.09375 -10.484375 C 5.382812 -10.484375 4.742188 -10.300781 4.171875 -9.9375 C 3.609375 -9.582031 3.15625 -9.054688 2.8125 -8.359375 C 2.476562 -7.671875 2.3125 -6.820312 2.3125 -5.8125 C 2.3125 -4.8125 2.476562 -3.960938 2.8125 -3.265625 C 3.15625 -2.578125 3.609375 -2.050781 4.171875 -1.6875 C 4.742188 -1.332031 5.382812 -1.15625 6.09375 -1.15625 C 6.601562 -1.15625 7.085938 -1.25 7.546875 -1.4375 C 8.003906 -1.632812 8.390625 -1.914062 8.703125 -2.28125 C 9.023438 -2.644531 9.242188 -3.097656 9.359375 -3.640625 L 10.765625 -3.640625 C 10.628906 -2.835938 10.335938 -2.15625 9.890625 -1.59375 C 9.453125 -1.03125 8.90625 -0.597656 8.25 -0.296875 C 7.59375 0.00390625 6.875 0.15625 6.09375 0.15625 C 5.101562 0.15625 4.21875 -0.0820312 3.4375 -0.5625 C 2.664062 -1.050781 2.054688 -1.742188 1.609375 -2.640625 C 1.171875 -3.535156 0.953125 -4.59375 0.953125 -5.8125 C 0.953125 -7.039062 1.171875 -8.101562 1.609375 -9 C 2.054688 -9.894531 2.664062 -10.582031 3.4375 -11.0625 C 4.21875 -11.550781 5.101562 -11.796875 6.09375 -11.796875 C 6.875 -11.796875 7.59375 -11.644531 8.25 -11.34375 C 8.90625 -11.039062 9.453125 -10.601562 9.890625 -10.03125 C 10.335938 -9.46875 10.628906 -8.789062 10.765625 -8 Z M 10.765625 -8 "/></g></g><g style="fill:#000000;fill-opacity:1;"><g transform="translate(62.811646, 71.34577)"><path style="stroke:none" d="M 1.40625 0 L 1.40625 -11.640625 L 2.8125 -11.640625 L 2.8125 -6.453125 L 9.015625 -6.453125 L 9.015625 -11.640625 L 10.4375 -11.640625 L 10.4375 0 L 9.015625 0 L 9.015625 -5.203125 L 2.8125 -5.203125 L 2.8125 0 Z M 1.40625 0 "/></g></g><g style="fill:#000000;fill-opacity:1;"><g transform="translate(74.650878, 73.59577)"><path style="stroke:none" d="M 3.078125 0.09375 C 2.628906 0.09375 2.226562 0.015625 1.875 -0.140625 C 1.53125 -0.296875 1.253906 -0.507812 1.046875 -0.78125 C 0.835938 -1.0625 0.722656 -1.382812 0.703125 -1.75 L 1.5625 -1.75 C 1.59375 -1.40625 1.75 -1.132812 2.03125 -0.9375 C 2.3125 -0.75 2.65625 -0.65625 3.0625 -0.65625 C 3.507812 -0.65625 3.878906 -0.769531 4.171875 -1 C 4.460938 -1.226562 4.609375 -1.523438 4.609375 -1.890625 C 4.609375 -2.273438 4.460938 -2.585938 4.171875 -2.828125 C 3.890625 -3.078125 3.484375 -3.203125 2.953125 -3.203125 L 2.390625 -3.203125 L 2.390625 -3.953125 L 2.953125 -3.953125 C 3.367188 -3.953125 3.707031 -4.0625 3.96875 -4.28125 C 4.226562 -4.5 4.359375 -4.796875 4.359375 -5.171875 C 4.359375 -5.515625 4.242188 -5.796875 4.015625 -6.015625 C 3.785156 -6.234375 3.476562 -6.34375 3.09375 -6.34375 C 2.851562 -6.34375 2.625 -6.296875 2.40625 -6.203125 C 2.195312 -6.117188 2.023438 -5.992188 1.890625 -5.828125 C 1.753906 -5.660156 1.679688 -5.460938 1.671875 -5.234375 L 0.859375 -5.234375 C 0.867188 -5.597656 0.976562 -5.914062 1.1875 -6.1875 C 1.394531 -6.46875 1.664062 -6.6875 2 -6.84375 C 2.332031 -7 2.703125 -7.078125 3.109375 -7.078125 C 3.535156 -7.078125 3.90625 -6.988281 4.21875 -6.8125 C 4.53125 -6.632812 4.765625 -6.40625 4.921875 -6.125 C 5.085938 -5.84375 5.171875 -5.535156 5.171875 -5.203125 C 5.171875 -4.804688 5.066406 -4.46875 4.859375 -4.1875 C 4.660156 -3.914062 4.382812 -3.726562 4.03125 -3.625 L 4.03125 -3.5625 C 4.46875 -3.5 4.8125 -3.316406 5.0625 -3.015625 C 5.3125 -2.710938 5.4375 -2.335938 5.4375 -1.890625 C 5.4375 -1.515625 5.332031 -1.175781 5.125 -0.875 C 4.925781 -0.570312 4.644531 -0.332031 4.28125 -0.15625 C 3.925781 0.0078125 3.523438 0.09375 3.078125 0.09375 Z M 3.078125 0.09375 "/></g></g><path style="fill:none;stroke-width:1;stroke-linecap:butt;stroke-linejoin:miter;stroke:#000000;stroke-opacity:1;stroke-miterlimit:4;" d="M 0.00246514 0.501206 L 9.814966 0.501206 " transform="matrix(0.75,0.000000000000008688,-0.000000000000008688,0.75,83.224714,67.034252)"/></g></svg>