<svg xmlns="http://www.w3.org/2000/svg" xmlns:xlink="http://www.w3.org/1999/xlink" width="1000" zoomAndPan="magnify" viewBox="0 0 750 749.999995" height="1000" preserveAspectRatio="xMidYMid meet" version="1.2"><defs><clipPath id="ffbc2df38b"><path d="M 46 128 L 659 128 L 659 501 L 46 501 Z M 46 128 "/></clipPath><clipPath id="8d0765e191"><path d="M 94.574219 109.15625 L 679.363281 273.699219 L 610.09375 519.890625 L 25.300781 355.34375 Z M 94.574219 109.15625 "/></clipPath><clipPath id="a586ad1eef"><path d="M 94.574219 109.15625 L 679.363281 273.699219 L 610.09375 519.890625 L 25.300781 355.34375 Z M 94.574219 109.15625 "/></clipPath><clipPath id="6195beca92"><path d="M 94.574219 109.15625 L 679.363281 273.699219 L 610.09375 519.890625 L 25.300781 355.34375 Z M 94.574219 109.15625 "/></clipPath><clipPath id="0b2acd4d14"><path d="M 59 141 L 646 141 L 646 488 L 59 488 Z M 59 141 "/></clipPath><clipPath id="7cb1d285db"><path d="M 94.574219 109.15625 L 679.363281 273.699219 L 610.09375 519.890625 L 25.300781 355.34375 Z M 94.574219 109.15625 "/></clipPath><clipPath id="13b8dc0d65"><path d="M 94.574219 109.15625 L 679.363281 273.699219 L 610.09375 519.890625 L 25.300781 355.34375 Z M 94.574219 109.15625 "/></clipPath><clipPath id="08eed4db3d"><path d="M 94.574219 109.15625 L 679.363281 273.699219 L 610.09375 519.890625 L 25.300781 355.34375 Z M 94.574219 109.15625 "/></clipPath><clipPath id="568b23ec76"><path d="M 623 362 L 636 362 L 636 375 L 623 375 Z M 623 362 "/></clipPath><clipPath id="91797fdf5f"><path d="M 94.574219 109.15625 L 679.363281 273.699219 L 610.09375 519.890625 L 25.300781 355.34375 Z M 94.574219 109.15625 "/></clipPath><clipPath id="7bdd9f481c"><path d="M 94.574219 109.15625 L 679.363281 273.699219 L 610.09375 519.890625 L 25.300781 355.34375 Z M 94.574219 109.15625 "/></clipPath><clipPath id="1bc0a104d4"><path d="M 94.574219 109.15625 L 679.363281 273.699219 L 610.09375 519.890625 L 25.300781 355.34375 Z M 94.574219 109.15625 "/></clipPath><clipPath id="36fd498c80"><path d="M 59 249 L 609 249 L 609 489 L 59 489 Z M 59 249 "/></clipPath><clipPath id="45dfa6470b"><path d="M 94.574219 109.15625 L 679.363281 273.699219 L 610.09375 519.890625 L 25.300781 355.34375 Z M 94.574219 109.15625 "/></clipPath><clipPath id="a4b8728d57"><path d="M 94.574219 109.15625 L 679.363281 273.699219 L 610.09375 519.890625 L 25.300781 355.34375 Z M 94.574219 109.15625 "/></clipPath><clipPath id="763293c03e"><path d="M 94.574219 109.15625 L 679.363281 273.699219 L 610.09375 519.890625 L 25.300781 355.34375 Z M 94.574219 109.15625 "/></clipPath><clipPath id="35cde4d0f0"><path d="M 125 102 L 625 102 L 625 523 L 125 523 Z M 125 102 "/></clipPath><clipPath id="2634a880ff"><path d="M 97.789062 367.761719 L 529 74.917969 L 652.460938 256.707031 L 221.25 549.554688 Z M 97.789062 367.761719 "/></clipPath><clipPath id="3cfcdd75aa"><path d="M 97.789062 367.761719 L 529 74.917969 L 652.460938 256.707031 L 221.25 549.554688 Z M 97.789062 367.761719 "/></clipPath><clipPath id="3150d30604"><path d="M 97.789062 367.761719 L 529 74.917969 L 652.460938 256.707031 L 221.25 549.554688 Z M 97.789062 367.761719 "/></clipPath><clipPath id="f43c6cc387"><path d="M 136 113 L 614 113 L 614 511 L 136 511 Z M 136 113 "/></clipPath><clipPath id="fa5fc90316"><path d="M 97.789062 367.761719 L 529 74.917969 L 652.460938 256.707031 L 221.25 549.554688 Z M 97.789062 367.761719 "/></clipPath><clipPath id="a7c361436c"><path d="M 97.789062 367.761719 L 529 74.917969 L 652.460938 256.707031 L 221.25 549.554688 Z M 97.789062 367.761719 "/></clipPath><clipPath id="2936af88f0"><path d="M 97.789062 367.761719 L 529 74.917969 L 652.460938 256.707031 L 221.25 549.554688 Z M 97.789062 367.761719 "/></clipPath><clipPath id="f6e6e8e8ac"><path d="M 561 153 L 566 153 L 566 167 L 561 167 Z M 561 153 "/></clipPath><clipPath id="50db60a72c"><path d="M 97.789062 367.761719 L 529 74.917969 L 652.460938 256.707031 L 221.25 549.554688 Z M 97.789062 367.761719 "/></clipPath><clipPath id="d3199f1bca"><path d="M 97.789062 367.761719 L 529 74.917969 L 652.460938 256.707031 L 221.25 549.554688 Z M 97.789062 367.761719 "/></clipPath><clipPath id="bfe8e770d0"><path d="M 97.789062 367.761719 L 529 74.917969 L 652.460938 256.707031 L 221.25 549.554688 Z M 97.789062 367.761719 "/></clipPath><clipPath id="535133bf48"><path d="M 184 223 L 614 223 L 614 511 L 184 511 Z M 184 223 "/></clipPath><clipPath id="f463ac842a"><path d="M 97.789062 367.761719 L 529 74.917969 L 652.460938 256.707031 L 221.25 549.554688 Z M 97.789062 367.761719 "/></clipPath><clipPath id="f45e2b6e41"><path d="M 97.789062 367.761719 L 529 74.917969 L 652.460938 256.707031 L 221.25 549.554688 Z M 97.789062 367.761719 "/></clipPath><clipPath id="ca06e6bbb2"><path d="M 97.789062 367.761719 L 529 74.917969 L 652.460938 256.707031 L 221.25 549.554688 Z M 97.789062 367.761719 "/></clipPath></defs><g id="d6fe62c30b"><g clip-rule="nonzero" clip-path="url(#ffbc2df38b)"><g clip-rule="nonzero" clip-path="url(#8d0765e191)"><g clip-rule="nonzero" clip-path="url(#a586ad1eef)"><g clip-rule="nonzero" clip-path="url(#6195beca92)"><path style=" stroke:none;fill-rule:nonzero;fill:#161616;fill-opacity:1;" d="M 103.605469 377.375 C 101.167969 376.691406 98.648438 375.859375 96.164062 374.90625 C 61.421875 361.378906 40.847656 325.070312 47.183594 288.328125 C 50.800781 267.453125 62.113281 249.496094 78.976562 237.605469 C 70.902344 218.699219 70.617188 197.480469 78.410156 177.78125 C 92.050781 143.09375 128.65625 122.871094 165.355469 129.445312 C 167.855469 129.898438 170.4375 130.5 172.875 131.1875 C 193.402344 136.960938 210.371094 150.492188 220.644531 169.144531 C 233.050781 191.773438 252.347656 207.710938 275.195312 214.136719 L 470.5 269.089844 C 493.347656 275.519531 518.238281 272.015625 540.507812 259.144531 C 559 248.585938 580.535156 245.890625 601.0625 251.667969 C 603.496094 252.351562 606.015625 253.1875 608.503906 254.136719 C 643.246094 267.664062 663.816406 303.972656 657.484375 340.71875 C 653.863281 361.589844 642.554688 379.546875 625.691406 391.4375 C 633.761719 410.34375 634.164062 431.597656 626.371094 451.292969 C 612.613281 485.949219 576.125 506.203125 539.425781 499.628906 C 536.925781 499.175781 534.34375 498.574219 531.789062 497.855469 C 511.261719 492.082031 494.292969 478.550781 484.023438 459.898438 C 471.613281 437.269531 452.320312 421.332031 429.472656 414.90625 L 234.167969 359.953125 C 211.320312 353.523438 186.425781 357.027344 164.15625 369.898438 C 145.667969 380.457031 124.132812 383.152344 103.605469 377.375 Z M 103.605469 377.375 "/></g></g></g></g><g clip-rule="nonzero" clip-path="url(#0b2acd4d14)"><g clip-rule="nonzero" clip-path="url(#7cb1d285db)"><g clip-rule="nonzero" clip-path="url(#13b8dc0d65)"><g clip-rule="nonzero" clip-path="url(#08eed4db3d)"><path style=" stroke:none;fill-rule:nonzero;fill:#ffffff;fill-opacity:1;" d="M 608.640625 386.640625 C 626.792969 377.738281 640.886719 360.5625 644.714844 338.5 C 650.015625 308.09375 632.527344 277.28125 603.769531 266.0625 C 584.027344 258.382812 563.46875 260.726562 546.875 270.320312 C 522.558594 284.238281 494.03125 289.097656 467.007812 281.492188 C 467.007812 281.492188 392.4375 260.511719 367.5 253.496094 C 343.609375 246.773438 271.703125 226.539062 271.703125 226.539062 C 244.683594 218.9375 222.839844 200.03125 209.382812 175.355469 C 200.226562 158.519531 183.792969 145.765625 163.058594 142.058594 C 132.550781 136.601562 101.675781 153.808594 90.347656 182.515625 C 81.992188 203.304688 85.0625 225.308594 96.023438 242.402344 C 77.875 251.304688 63.78125 268.480469 59.949219 290.542969 C 54.648438 320.949219 72.136719 351.761719 100.894531 362.980469 C 120.636719 370.660156 141.199219 368.316406 157.789062 358.726562 C 182.105469 344.804688 210.632812 339.945312 237.65625 347.550781 C 237.65625 347.550781 309.445312 367.75 333.335938 374.472656 C 358.273438 381.488281 432.84375 402.46875 432.84375 402.46875 C 459.867188 410.074219 481.707031 428.976562 495.164062 453.652344 C 504.355469 470.375 520.789062 483.128906 541.492188 486.953125 C 571.996094 492.410156 602.871094 475.203125 614.203125 446.496094 C 622.671875 425.738281 619.601562 403.734375 608.640625 386.640625 Z M 608.640625 386.640625 "/></g></g></g></g><g clip-rule="nonzero" clip-path="url(#568b23ec76)"><g clip-rule="nonzero" clip-path="url(#91797fdf5f)"><g clip-rule="nonzero" clip-path="url(#7bdd9f481c)"><g clip-rule="nonzero" clip-path="url(#1bc0a104d4)"><path style=" stroke:none;fill-rule:nonzero;fill:#ffe7cc;fill-opacity:1;" d="M 623.285156 370.621094 C 624.152344 371.992188 624.902344 373.328125 625.652344 374.664062 C 629.261719 371.175781 632.472656 367.328125 635.203125 362.96875 C 631.460938 366.042969 627.496094 368.554688 623.285156 370.621094 Z M 623.285156 370.621094 "/></g></g></g></g><g clip-rule="nonzero" clip-path="url(#36fd498c80)"><g clip-rule="nonzero" clip-path="url(#45dfa6470b)"><g clip-rule="nonzero" clip-path="url(#a4b8728d57)"><g clip-rule="nonzero" clip-path="url(#763293c03e)"><path style=" stroke:none;fill-rule:nonzero;fill:#ffe7cc;fill-opacity:1;" d="M 556.253906 470.964844 C 535.402344 467.226562 519.082031 454.503906 509.925781 437.667969 C 496.4375 413.109375 474.628906 394.089844 447.605469 386.484375 C 447.605469 386.484375 372.917969 365.46875 348.097656 358.484375 C 324.207031 351.761719 252.417969 331.5625 252.417969 331.5625 C 225.394531 323.960938 196.902344 328.703125 172.550781 342.738281 C 155.992188 352.214844 135.316406 354.527344 115.65625 346.996094 C 86.78125 335.742188 69.410156 304.960938 74.710938 274.558594 C 76.261719 265.488281 79.601562 257.171875 84.257812 249.976562 C 72.050781 259.550781 63.074219 273.660156 60.066406 290.574219 C 54.765625 320.980469 72.253906 351.792969 101.011719 363.011719 C 120.753906 370.695312 141.3125 368.347656 157.90625 358.757812 C 182.222656 344.835938 210.75 339.976562 237.773438 347.582031 C 237.773438 347.582031 309.5625 367.78125 333.453125 374.503906 C 358.386719 381.519531 432.960938 402.503906 432.960938 402.503906 C 459.984375 410.105469 481.824219 429.011719 495.28125 453.6875 C 504.46875 470.40625 520.90625 483.160156 541.609375 486.984375 C 567.925781 491.761719 594.5 479.601562 608.558594 457.664062 C 594.222656 469.015625 575.066406 474.382812 556.253906 470.964844 Z M 556.253906 470.964844 "/></g></g></g></g><g clip-rule="nonzero" clip-path="url(#35cde4d0f0)"><g clip-rule="nonzero" clip-path="url(#2634a880ff)"><g clip-rule="nonzero" clip-path="url(#3cfcdd75aa)"><g clip-rule="nonzero" clip-path="url(#3150d30604)"><path style=" stroke:none;fill-rule:nonzero;fill:#161616;fill-opacity:1;" d="M 278.980469 510.347656 C 277.183594 511.566406 275.242188 512.757812 273.246094 513.867188 C 245.160156 529.1875 209.9375 522.589844 189.300781 498.089844 C 177.589844 484.15625 172.042969 466.789062 173.546875 449.132812 C 156.664062 443.960938 142.566406 432.402344 133.933594 416.378906 C 118.683594 388.214844 125.625 352.988281 150.222656 332.53125 C 151.902344 331.140625 153.722656 329.777344 155.519531 328.554688 C 170.65625 318.277344 188.921875 314.625 206.851562 318.207031 C 228.574219 322.589844 249.703125 318.746094 266.554688 307.304688 L 410.574219 209.496094 C 427.421875 198.054688 438.875 179.769531 442.722656 158.023438 C 446.003906 140.035156 456.132812 124.402344 471.269531 114.125 C 473.066406 112.902344 475.003906 111.710938 477.003906 110.605469 C 505.089844 95.285156 540.308594 101.878906 560.949219 126.382812 C 572.660156 140.316406 578.207031 157.683594 576.703125 175.339844 C 593.582031 180.507812 607.769531 192.011719 616.398438 208.035156 C 631.566406 236.253906 624.710938 271.425781 600.113281 291.882812 C 598.433594 293.273438 596.609375 294.636719 594.730469 295.914062 C 579.589844 306.195312 561.324219 309.84375 543.398438 306.261719 C 521.675781 301.878906 500.542969 305.726562 483.695312 317.167969 L 339.675781 414.976562 C 322.828125 426.417969 311.375 444.699219 307.523438 466.449219 C 304.242188 484.433594 294.117188 500.066406 278.980469 510.347656 Z M 278.980469 510.347656 "/></g></g></g></g><g clip-rule="nonzero" clip-path="url(#f43c6cc387)"><g clip-rule="nonzero" clip-path="url(#fa5fc90316)"><g clip-rule="nonzero" clip-path="url(#a7c361436c)"><g clip-rule="nonzero" clip-path="url(#2936af88f0)"><path style=" stroke:none;fill-rule:nonzero;fill:#ffffff;fill-opacity:1;" d="M 564.128906 183.878906 C 568.308594 167.03125 564.816406 148.269531 552.4375 133.539062 C 535.390625 113.222656 505.484375 107.644531 482.222656 120.316406 C 466.269531 129.023438 456.449219 143.824219 453.582031 160.027344 C 449.292969 183.703125 436.71875 205.121094 416.792969 218.652344 C 416.792969 218.652344 361.800781 256 343.414062 268.488281 C 325.796875 280.453125 272.773438 316.460938 272.773438 316.460938 C 252.84375 329.996094 228.359375 333.867188 204.710938 329.042969 C 188.59375 325.730469 171.128906 329.460938 157.238281 341.023438 C 136.796875 358.03125 131.039062 387.828125 143.636719 411.164062 C 152.679688 428.160156 168.832031 438.324219 186.117188 440.59375 C 181.9375 457.441406 185.433594 476.203125 197.8125 490.933594 C 214.855469 511.246094 244.761719 516.824219 268.023438 504.15625 C 283.980469 495.445312 293.800781 480.648438 296.664062 464.445312 C 300.957031 440.769531 313.527344 419.347656 333.457031 405.816406 C 333.457031 405.816406 386.394531 369.863281 404.011719 357.898438 C 422.398438 345.414062 477.390625 308.066406 477.390625 308.066406 C 497.316406 294.535156 521.804688 290.660156 545.453125 295.488281 C 561.511719 298.710938 578.972656 294.980469 592.925781 283.507812 C 613.367188 266.5 619.121094 236.699219 606.523438 213.367188 C 597.566406 196.3125 581.414062 186.144531 564.128906 183.878906 Z M 564.128906 183.878906 "/></g></g></g></g><g clip-rule="nonzero" clip-path="url(#f6e6e8e8ac)"><g clip-rule="nonzero" clip-path="url(#50db60a72c)"><g clip-rule="nonzero" clip-path="url(#d3199f1bca)"><g clip-rule="nonzero" clip-path="url(#bfe8e770d0)"><path style=" stroke:none;fill-rule:nonzero;fill:#ffe7cc;fill-opacity:1;" d="M 561.699219 165.394531 C 563.078125 165.582031 564.371094 165.832031 565.664062 166.078125 C 565.367188 161.777344 564.609375 157.535156 563.253906 153.332031 C 563.207031 157.492188 562.667969 161.484375 561.699219 165.394531 Z M 561.699219 165.394531 "/></g></g></g></g><g clip-rule="nonzero" clip-path="url(#535133bf48)"><g clip-rule="nonzero" clip-path="url(#f463ac842a)"><g clip-rule="nonzero" clip-path="url(#f45e2b6e41)"><g clip-rule="nonzero" clip-path="url(#ca06e6bbb2)"><path style=" stroke:none;fill-rule:nonzero;fill:#ffe7cc;fill-opacity:1;" d="M 590.582031 264.964844 C 576.601562 276.582031 559.226562 280.253906 543.105469 276.945312 C 519.515625 272.203125 494.972656 275.992188 475.046875 289.523438 C 475.046875 289.523438 419.96875 326.929688 401.667969 339.359375 C 384.046875 351.324219 331.109375 387.273438 331.109375 387.273438 C 311.183594 400.808594 298.554688 422.140625 294.320312 445.902344 C 291.394531 462.019531 281.492188 476.875 265.679688 485.613281 C 242.332031 498.339844 212.511719 492.707031 195.464844 472.390625 C 190.363281 466.351562 186.746094 459.550781 184.589844 452.511719 C 184.136719 465.828125 188.445312 479.535156 197.898438 490.875 C 214.941406 511.191406 244.847656 516.765625 268.109375 504.097656 C 284.066406 495.386719 293.882812 480.589844 296.75 464.386719 C 301.042969 440.710938 313.613281 419.292969 333.542969 405.757812 C 333.542969 405.757812 386.480469 369.808594 404.097656 357.84375 C 422.484375 345.355469 477.476562 308.007812 477.476562 308.007812 C 497.402344 294.476562 521.890625 290.601562 545.535156 295.429688 C 561.597656 298.652344 579.058594 294.925781 593.011719 283.449219 C 610.691406 268.816406 617.386719 244.632812 610.742188 223.257812 C 610.28125 238.953125 603.222656 254.503906 590.582031 264.964844 Z M 590.582031 264.964844 "/></g></g></g></g></g></svg>