<svg xmlns="http://www.w3.org/2000/svg" xmlns:xlink="http://www.w3.org/1999/xlink" width="400" zoomAndPan="magnify" viewBox="0 0 300 149.999998" height="200" preserveAspectRatio="xMidYMid meet" version="1.2"><defs/><g id="0315879b82"><g style="fill:#00bf63;fill-opacity:1;"><g transform="translate(93.584066, 79.316541)"><path style="stroke:none" d="M 5.640625 -9.03125 C 4.566406 -9.03125 3.722656 -8.671875 3.109375 -7.953125 C 2.492188 -7.234375 2.1875 -6.25 2.1875 -5 C 2.1875 -3.707031 2.484375 -2.710938 3.078125 -2.015625 C 3.671875 -1.316406 4.519531 -0.96875 5.625 -0.96875 C 6.332031 -0.96875 7.132812 -1.097656 8.03125 -1.359375 L 8.03125 -0.265625 C 7.601562 -0.109375 7.191406 -0.00390625 6.796875 0.046875 C 6.410156 0.109375 5.960938 0.140625 5.453125 0.140625 C 3.972656 0.140625 2.835938 -0.304688 2.046875 -1.203125 C 1.253906 -2.097656 0.859375 -3.367188 0.859375 -5.015625 C 0.859375 -6.046875 1.046875 -6.945312 1.421875 -7.71875 C 1.804688 -8.488281 2.359375 -9.082031 3.078125 -9.5 C 3.804688 -9.925781 4.664062 -10.140625 5.65625 -10.140625 C 6.707031 -10.140625 7.628906 -9.941406 8.421875 -9.546875 L 7.90625 -8.484375 C 7.113281 -8.847656 6.359375 -9.03125 5.640625 -9.03125 Z M 5.640625 -9.03125 "/></g></g><g style="fill:#00bf63;fill-opacity:1;"><g transform="translate(102.424832, 79.316541)"><path style="stroke:none" d="M 9 0 L 7.75 0 L 7.75 -4.65625 L 2.625 -4.65625 L 2.625 0 L 1.359375 0 L 1.359375 -10 L 2.625 -10 L 2.625 -5.765625 L 7.75 -5.765625 L 7.75 -10 L 9 -10 Z M 9 0 "/></g></g><g style="fill:#00bf63;fill-opacity:1;"><g transform="translate(117.607502, 79.316541)"><path style="stroke:none" d="M 0.78125 -5.828125 L 0.78125 -6.8125 L 7.203125 -6.8125 L 7.203125 -5.828125 Z M 0.78125 -3.03125 L 0.78125 -4.03125 L 7.203125 -4.03125 L 7.203125 -3.03125 Z M 0.78125 -3.03125 "/></g></g><g style="fill:#00bf63;fill-opacity:1;"><g transform="translate(125.607917, 79.316541)"><path style="stroke:none" d="M 5.640625 -9.03125 C 4.566406 -9.03125 3.722656 -8.671875 3.109375 -7.953125 C 2.492188 -7.234375 2.1875 -6.25 2.1875 -5 C 2.1875 -3.707031 2.484375 -2.710938 3.078125 -2.015625 C 3.671875 -1.316406 4.519531 -0.96875 5.625 -0.96875 C 6.332031 -0.96875 7.132812 -1.097656 8.03125 -1.359375 L 8.03125 -0.265625 C 7.601562 -0.109375 7.191406 -0.00390625 6.796875 0.046875 C 6.410156 0.109375 5.960938 0.140625 5.453125 0.140625 C 3.972656 0.140625 2.835938 -0.304688 2.046875 -1.203125 C 1.253906 -2.097656 0.859375 -3.367188 0.859375 -5.015625 C 0.859375 -6.046875 1.046875 -6.945312 1.421875 -7.71875 C 1.804688 -8.488281 2.359375 -9.082031 3.078125 -9.5 C 3.804688 -9.925781 4.664062 -10.140625 5.65625 -10.140625 C 6.707031 -10.140625 7.628906 -9.941406 8.421875 -9.546875 L 7.90625 -8.484375 C 7.113281 -8.847656 6.359375 -9.03125 5.640625 -9.03125 Z M 5.640625 -9.03125 "/></g></g><g style="fill:#00bf63;fill-opacity:1;"><g transform="translate(134.448684, 79.316541)"><path style="stroke:none" d="M 0.5625 -3.203125 L 0.5625 -4.296875 L 3.953125 -4.296875 L 3.953125 -3.203125 Z M 0.5625 -3.203125 "/></g></g><g style="fill:#00bf63;fill-opacity:1;"><g transform="translate(138.951052, 79.316541)"><path style="stroke:none" d="M 5.640625 -9.03125 C 4.566406 -9.03125 3.722656 -8.671875 3.109375 -7.953125 C 2.492188 -7.234375 2.1875 -6.25 2.1875 -5 C 2.1875 -3.707031 2.484375 -2.710938 3.078125 -2.015625 C 3.671875 -1.316406 4.519531 -0.96875 5.625 -0.96875 C 6.332031 -0.96875 7.132812 -1.097656 8.03125 -1.359375 L 8.03125 -0.265625 C 7.601562 -0.109375 7.191406 -0.00390625 6.796875 0.046875 C 6.410156 0.109375 5.960938 0.140625 5.453125 0.140625 C 3.972656 0.140625 2.835938 -0.304688 2.046875 -1.203125 C 1.253906 -2.097656 0.859375 -3.367188 0.859375 -5.015625 C 0.859375 -6.046875 1.046875 -6.945312 1.421875 -7.71875 C 1.804688 -8.488281 2.359375 -9.082031 3.078125 -9.5 C 3.804688 -9.925781 4.664062 -10.140625 5.65625 -10.140625 C 6.707031 -10.140625 7.628906 -9.941406 8.421875 -9.546875 L 7.90625 -8.484375 C 7.113281 -8.847656 6.359375 -9.03125 5.640625 -9.03125 Z M 5.640625 -9.03125 "/></g></g><g style="fill:#00bf63;fill-opacity:1;"><g transform="translate(147.791819, 79.316541)"><path style="stroke:none" d="M 10.078125 -5.015625 C 10.078125 -3.410156 9.671875 -2.148438 8.859375 -1.234375 C 8.054688 -0.316406 6.925781 0.140625 5.46875 0.140625 C 4 0.140625 2.863281 -0.304688 2.0625 -1.203125 C 1.257812 -2.109375 0.859375 -3.382812 0.859375 -5.03125 C 0.859375 -6.65625 1.253906 -7.914062 2.046875 -8.8125 C 2.847656 -9.707031 3.992188 -10.15625 5.484375 -10.15625 C 6.929688 -10.15625 8.054688 -9.695312 8.859375 -8.78125 C 9.671875 -7.875 10.078125 -6.617188 10.078125 -5.015625 Z M 2.1875 -5.015625 C 2.1875 -3.691406 2.460938 -2.679688 3.015625 -1.984375 C 3.578125 -1.296875 4.394531 -0.953125 5.46875 -0.953125 C 6.539062 -0.953125 7.351562 -1.289062 7.90625 -1.96875 C 8.46875 -2.65625 8.75 -3.671875 8.75 -5.015625 C 8.75 -6.347656 8.472656 -7.351562 7.921875 -8.03125 C 7.367188 -8.707031 6.554688 -9.046875 5.484375 -9.046875 C 4.398438 -9.046875 3.578125 -8.703125 3.015625 -8.015625 C 2.460938 -7.328125 2.1875 -6.328125 2.1875 -5.015625 Z M 2.1875 -5.015625 "/></g></g><g style="fill:#00bf63;fill-opacity:1;"><g transform="translate(112.802815, 81.566541)"><path style="stroke:none" d="M 4.375 0 L 0.40625 0 L 0.40625 -0.609375 L 1.96875 -2.203125 C 2.445312 -2.679688 2.757812 -3.019531 2.90625 -3.21875 C 3.0625 -3.425781 3.175781 -3.625 3.25 -3.8125 C 3.332031 -4.007812 3.375 -4.21875 3.375 -4.4375 C 3.375 -4.757812 3.273438 -5.007812 3.078125 -5.1875 C 2.890625 -5.363281 2.632812 -5.453125 2.3125 -5.453125 C 2.0625 -5.453125 1.828125 -5.410156 1.609375 -5.328125 C 1.390625 -5.242188 1.140625 -5.097656 0.859375 -4.890625 L 0.46875 -5.375 C 1.03125 -5.851562 1.644531 -6.09375 2.3125 -6.09375 C 2.863281 -6.09375 3.300781 -5.945312 3.625 -5.65625 C 3.957031 -5.375 4.125 -4.984375 4.125 -4.484375 C 4.125 -4.222656 4.078125 -3.96875 3.984375 -3.71875 C 3.890625 -3.476562 3.742188 -3.234375 3.546875 -2.984375 C 3.359375 -2.734375 3.039062 -2.382812 2.59375 -1.9375 L 1.34375 -0.703125 L 1.34375 -0.671875 L 4.375 -0.671875 Z M 4.375 0 "/></g></g><g style="fill:#00bf63;fill-opacity:1;"><g transform="translate(126.150478, 97.990837)"><path style="stroke:none" d="M 5.640625 -9.03125 C 4.566406 -9.03125 3.722656 -8.671875 3.109375 -7.953125 C 2.492188 -7.234375 2.1875 -6.25 2.1875 -5 C 2.1875 -3.707031 2.484375 -2.710938 3.078125 -2.015625 C 3.671875 -1.316406 4.519531 -0.96875 5.625 -0.96875 C 6.332031 -0.96875 7.132812 -1.097656 8.03125 -1.359375 L 8.03125 -0.265625 C 7.601562 -0.109375 7.191406 -0.00390625 6.796875 0.046875 C 6.410156 0.109375 5.960938 0.140625 5.453125 0.140625 C 3.972656 0.140625 2.835938 -0.304688 2.046875 -1.203125 C 1.253906 -2.097656 0.859375 -3.367188 0.859375 -5.015625 C 0.859375 -6.046875 1.046875 -6.945312 1.421875 -7.71875 C 1.804688 -8.488281 2.359375 -9.082031 3.078125 -9.5 C 3.804688 -9.925781 4.664062 -10.140625 5.65625 -10.140625 C 6.707031 -10.140625 7.628906 -9.941406 8.421875 -9.546875 L 7.90625 -8.484375 C 7.113281 -8.847656 6.359375 -9.03125 5.640625 -9.03125 Z M 5.640625 -9.03125 "/></g></g><g style="fill:#00bf63;fill-opacity:1;"><g transform="translate(134.991244, 97.990837)"><path style="stroke:none" d="M 9 0 L 7.75 0 L 7.75 -4.65625 L 2.625 -4.65625 L 2.625 0 L 1.359375 0 L 1.359375 -10 L 2.625 -10 L 2.625 -5.765625 L 7.75 -5.765625 L 7.75 -10 L 9 -10 Z M 9 0 "/></g></g><g style="fill:#00bf63;fill-opacity:1;"><g transform="translate(145.369226, 100.240837)"><path style="stroke:none" d="M 4.140625 -4.59375 C 4.140625 -4.207031 4.03125 -3.890625 3.8125 -3.640625 C 3.601562 -3.398438 3.300781 -3.238281 2.90625 -3.15625 L 2.90625 -3.125 C 3.382812 -3.0625 3.738281 -2.90625 3.96875 -2.65625 C 4.207031 -2.414062 4.328125 -2.097656 4.328125 -1.703125 C 4.328125 -1.128906 4.128906 -0.6875 3.734375 -0.375 C 3.335938 -0.0703125 2.769531 0.078125 2.03125 0.078125 C 1.707031 0.078125 1.410156 0.0507812 1.140625 0 C 0.878906 -0.0390625 0.625 -0.117188 0.375 -0.234375 L 0.375 -0.9375 C 0.632812 -0.8125 0.90625 -0.710938 1.1875 -0.640625 C 1.476562 -0.566406 1.757812 -0.53125 2.03125 -0.53125 C 3.039062 -0.53125 3.546875 -0.925781 3.546875 -1.71875 C 3.546875 -2.425781 2.988281 -2.78125 1.875 -2.78125 L 1.296875 -2.78125 L 1.296875 -3.40625 L 1.890625 -3.40625 C 2.359375 -3.40625 2.722656 -3.503906 2.984375 -3.703125 C 3.253906 -3.910156 3.390625 -4.191406 3.390625 -4.546875 C 3.390625 -4.835938 3.289062 -5.0625 3.09375 -5.21875 C 2.90625 -5.382812 2.640625 -5.46875 2.296875 -5.46875 C 2.023438 -5.46875 1.773438 -5.429688 1.546875 -5.359375 C 1.328125 -5.285156 1.070312 -5.148438 0.78125 -4.953125 L 0.40625 -5.46875 C 0.65625 -5.65625 0.941406 -5.804688 1.265625 -5.921875 C 1.585938 -6.035156 1.925781 -6.09375 2.28125 -6.09375 C 2.875 -6.09375 3.332031 -5.957031 3.65625 -5.6875 C 3.976562 -5.414062 4.140625 -5.050781 4.140625 -4.59375 Z M 4.140625 -4.59375 "/></g></g><path style="fill:none;stroke-width:1;stroke-linecap:butt;stroke-linejoin:miter;stroke:#00bf63;stroke-opacity:1;stroke-miterlimit:4;" d="M -0.000101808 0.499677 L 9.13018 0.499677 " transform="matrix(0,0.739726,-0.739726,0,131.611812,81.261794)"/><g style="fill:#000000;fill-opacity:1;"><g transform="translate(158.739133, 79.26744)"><path style="stroke:none" d="M 10.078125 -5.015625 C 10.078125 -3.410156 9.671875 -2.148438 8.859375 -1.234375 C 8.054688 -0.316406 6.925781 0.140625 5.46875 0.140625 C 4 0.140625 2.863281 -0.304688 2.0625 -1.203125 C 1.257812 -2.109375 0.859375 -3.382812 0.859375 -5.03125 C 0.859375 -6.65625 1.253906 -7.914062 2.046875 -8.8125 C 2.847656 -9.707031 3.992188 -10.15625 5.484375 -10.15625 C 6.929688 -10.15625 8.054688 -9.695312 8.859375 -8.78125 C 9.671875 -7.875 10.078125 -6.617188 10.078125 -5.015625 Z M 2.1875 -5.015625 C 2.1875 -3.691406 2.460938 -2.679688 3.015625 -1.984375 C 3.578125 -1.296875 4.394531 -0.953125 5.46875 -0.953125 C 6.539062 -0.953125 7.351562 -1.289062 7.90625 -1.96875 C 8.46875 -2.65625 8.75 -3.671875 8.75 -5.015625 C 8.75 -6.347656 8.472656 -7.351562 7.921875 -8.03125 C 7.367188 -8.707031 6.554688 -9.046875 5.484375 -9.046875 C 4.398438 -9.046875 3.578125 -8.703125 3.015625 -8.015625 C 2.460938 -7.328125 2.1875 -6.328125 2.1875 -5.015625 Z M 2.1875 -5.015625 "/></g></g><g style="fill:#000000;fill-opacity:1;"><g transform="translate(169.663697, 79.26744)"><path style="stroke:none" d="M 5.640625 -9.03125 C 4.566406 -9.03125 3.722656 -8.671875 3.109375 -7.953125 C 2.492188 -7.234375 2.1875 -6.25 2.1875 -5 C 2.1875 -3.707031 2.484375 -2.710938 3.078125 -2.015625 C 3.671875 -1.316406 4.519531 -0.96875 5.625 -0.96875 C 6.332031 -0.96875 7.132812 -1.097656 8.03125 -1.359375 L 8.03125 -0.265625 C 7.601562 -0.109375 7.191406 -0.00390625 6.796875 0.046875 C 6.410156 0.109375 5.960938 0.140625 5.453125 0.140625 C 3.972656 0.140625 2.835938 -0.304688 2.046875 -1.203125 C 1.253906 -2.097656 0.859375 -3.367188 0.859375 -5.015625 C 0.859375 -6.046875 1.046875 -6.945312 1.421875 -7.71875 C 1.804688 -8.488281 2.359375 -9.082031 3.078125 -9.5 C 3.804688 -9.925781 4.664062 -10.140625 5.65625 -10.140625 C 6.707031 -10.140625 7.628906 -9.941406 8.421875 -9.546875 L 7.90625 -8.484375 C 7.113281 -8.847656 6.359375 -9.03125 5.640625 -9.03125 Z M 5.640625 -9.03125 "/></g></g><g style="fill:#000000;fill-opacity:1;"><g transform="translate(178.504463, 79.26744)"><path style="stroke:none" d="M 0.5625 -3.203125 L 0.5625 -4.296875 L 3.953125 -4.296875 L 3.953125 -3.203125 Z M 0.5625 -3.203125 "/></g></g><g style="fill:#000000;fill-opacity:1;"><g transform="translate(183.006832, 79.26744)"><path style="stroke:none" d="M 5.640625 -9.03125 C 4.566406 -9.03125 3.722656 -8.671875 3.109375 -7.953125 C 2.492188 -7.234375 2.1875 -6.25 2.1875 -5 C 2.1875 -3.707031 2.484375 -2.710938 3.078125 -2.015625 C 3.671875 -1.316406 4.519531 -0.96875 5.625 -0.96875 C 6.332031 -0.96875 7.132812 -1.097656 8.03125 -1.359375 L 8.03125 -0.265625 C 7.601562 -0.109375 7.191406 -0.00390625 6.796875 0.046875 C 6.410156 0.109375 5.960938 0.140625 5.453125 0.140625 C 3.972656 0.140625 2.835938 -0.304688 2.046875 -1.203125 C 1.253906 -2.097656 0.859375 -3.367188 0.859375 -5.015625 C 0.859375 -6.046875 1.046875 -6.945312 1.421875 -7.71875 C 1.804688 -8.488281 2.359375 -9.082031 3.078125 -9.5 C 3.804688 -9.925781 4.664062 -10.140625 5.65625 -10.140625 C 6.707031 -10.140625 7.628906 -9.941406 8.421875 -9.546875 L 7.90625 -8.484375 C 7.113281 -8.847656 6.359375 -9.03125 5.640625 -9.03125 Z M 5.640625 -9.03125 "/></g></g><g style="fill:#000000;fill-opacity:1;"><g transform="translate(191.847598, 79.26744)"><path style="stroke:none" d="M 9 0 L 7.75 0 L 7.75 -4.65625 L 2.625 -4.65625 L 2.625 0 L 1.359375 0 L 1.359375 -10 L 2.625 -10 L 2.625 -5.765625 L 7.75 -5.765625 L 7.75 -10 L 9 -10 Z M 9 0 "/></g></g><g style="fill:#000000;fill-opacity:1;"><g transform="translate(202.227412, 81.51744)"><path style="stroke:none" d="M 4.140625 -4.59375 C 4.140625 -4.207031 4.03125 -3.890625 3.8125 -3.640625 C 3.601562 -3.398438 3.300781 -3.238281 2.90625 -3.15625 L 2.90625 -3.125 C 3.382812 -3.0625 3.738281 -2.90625 3.96875 -2.65625 C 4.207031 -2.414062 4.328125 -2.097656 4.328125 -1.703125 C 4.328125 -1.128906 4.128906 -0.6875 3.734375 -0.375 C 3.335938 -0.0703125 2.769531 0.078125 2.03125 0.078125 C 1.707031 0.078125 1.410156 0.0507812 1.140625 0 C 0.878906 -0.0390625 0.625 -0.117188 0.375 -0.234375 L 0.375 -0.9375 C 0.632812 -0.8125 0.90625 -0.710938 1.1875 -0.640625 C 1.476562 -0.566406 1.757812 -0.53125 2.03125 -0.53125 C 3.039062 -0.53125 3.546875 -0.925781 3.546875 -1.71875 C 3.546875 -2.425781 2.988281 -2.78125 1.875 -2.78125 L 1.296875 -2.78125 L 1.296875 -3.40625 L 1.890625 -3.40625 C 2.359375 -3.40625 2.722656 -3.503906 2.984375 -3.703125 C 3.253906 -3.910156 3.390625 -4.191406 3.390625 -4.546875 C 3.390625 -4.835938 3.289062 -5.0625 3.09375 -5.21875 C 2.90625 -5.382812 2.640625 -5.46875 2.296875 -5.46875 C 2.023438 -5.46875 1.773438 -5.429688 1.546875 -5.359375 C 1.328125 -5.285156 1.070312 -5.148438 0.78125 -4.953125 L 0.40625 -5.46875 C 0.65625 -5.65625 0.941406 -5.804688 1.265625 -5.921875 C 1.585938 -6.035156 1.925781 -6.09375 2.28125 -6.09375 C 2.875 -6.09375 3.332031 -5.957031 3.65625 -5.6875 C 3.976562 -5.414062 4.140625 -5.050781 4.140625 -4.59375 Z M 4.140625 -4.59375 "/></g></g><g style="fill:#000000;fill-opacity:1;"><g transform="translate(167.985653, 102.815914)"><path style="stroke:none" d="M 5.640625 -9.03125 C 4.566406 -9.03125 3.722656 -8.671875 3.109375 -7.953125 C 2.492188 -7.234375 2.1875 -6.25 2.1875 -5 C 2.1875 -3.707031 2.484375 -2.710938 3.078125 -2.015625 C 3.671875 -1.316406 4.519531 -0.96875 5.625 -0.96875 C 6.332031 -0.96875 7.132812 -1.097656 8.03125 -1.359375 L 8.03125 -0.265625 C 7.601562 -0.109375 7.191406 -0.00390625 6.796875 0.046875 C 6.410156 0.109375 5.960938 0.140625 5.453125 0.140625 C 3.972656 0.140625 2.835938 -0.304688 2.046875 -1.203125 C 1.253906 -2.097656 0.859375 -3.367188 0.859375 -5.015625 C 0.859375 -6.046875 1.046875 -6.945312 1.421875 -7.71875 C 1.804688 -8.488281 2.359375 -9.082031 3.078125 -9.5 C 3.804688 -9.925781 4.664062 -10.140625 5.65625 -10.140625 C 6.707031 -10.140625 7.628906 -9.941406 8.421875 -9.546875 L 7.90625 -8.484375 C 7.113281 -8.847656 6.359375 -9.03125 5.640625 -9.03125 Z M 5.640625 -9.03125 "/></g></g><g style="fill:#000000;fill-opacity:1;"><g transform="translate(176.826419, 102.815914)"><path style="stroke:none" d="M 9 0 L 7.75 0 L 7.75 -4.65625 L 2.625 -4.65625 L 2.625 0 L 1.359375 0 L 1.359375 -10 L 2.625 -10 L 2.625 -5.765625 L 7.75 -5.765625 L 7.75 -10 L 9 -10 Z M 9 0 "/></g></g><g style="fill:#000000;fill-opacity:1;"><g transform="translate(187.204402, 105.065914)"><path style="stroke:none" d="M 4.140625 -4.59375 C 4.140625 -4.207031 4.03125 -3.890625 3.8125 -3.640625 C 3.601562 -3.398438 3.300781 -3.238281 2.90625 -3.15625 L 2.90625 -3.125 C 3.382812 -3.0625 3.738281 -2.90625 3.96875 -2.65625 C 4.207031 -2.414062 4.328125 -2.097656 4.328125 -1.703125 C 4.328125 -1.128906 4.128906 -0.6875 3.734375 -0.375 C 3.335938 -0.0703125 2.769531 0.078125 2.03125 0.078125 C 1.707031 0.078125 1.410156 0.0507812 1.140625 0 C 0.878906 -0.0390625 0.625 -0.117188 0.375 -0.234375 L 0.375 -0.9375 C 0.632812 -0.8125 0.90625 -0.710938 1.1875 -0.640625 C 1.476562 -0.566406 1.757812 -0.53125 2.03125 -0.53125 C 3.039062 -0.53125 3.546875 -0.925781 3.546875 -1.71875 C 3.546875 -2.425781 2.988281 -2.78125 1.875 -2.78125 L 1.296875 -2.78125 L 1.296875 -3.40625 L 1.890625 -3.40625 C 2.359375 -3.40625 2.722656 -3.503906 2.984375 -3.703125 C 3.253906 -3.910156 3.390625 -4.191406 3.390625 -4.546875 C 3.390625 -4.835938 3.289062 -5.0625 3.09375 -5.21875 C 2.90625 -5.382812 2.640625 -5.46875 2.296875 -5.46875 C 2.023438 -5.46875 1.773438 -5.429688 1.546875 -5.359375 C 1.328125 -5.285156 1.070312 -5.148438 0.78125 -4.953125 L 0.40625 -5.46875 C 0.65625 -5.65625 0.941406 -5.804688 1.265625 -5.921875 C 1.585938 -6.035156 1.925781 -6.09375 2.28125 -6.09375 C 2.875 -6.09375 3.332031 -5.957031 3.65625 -5.6875 C 3.976562 -5.414062 4.140625 -5.050781 4.140625 -4.59375 Z M 4.140625 -4.59375 "/></g></g><path style="fill:none;stroke-width:1;stroke-linecap:butt;stroke-linejoin:miter;stroke:#000000;stroke-opacity:1;stroke-miterlimit:4;" d="M 0.0017465 0.500458 L 9.132028 0.500458 " transform="matrix(0,0.739726,-0.739726,0,174.299889,85.369802)"/><g style="fill:#000000;fill-opacity:1;"><g transform="translate(168.400099, 56.18408)"><path style="stroke:none" d="M 5.640625 -9.03125 C 4.566406 -9.03125 3.722656 -8.671875 3.109375 -7.953125 C 2.492188 -7.234375 2.1875 -6.25 2.1875 -5 C 2.1875 -3.707031 2.484375 -2.710938 3.078125 -2.015625 C 3.671875 -1.316406 4.519531 -0.96875 5.625 -0.96875 C 6.332031 -0.96875 7.132812 -1.097656 8.03125 -1.359375 L 8.03125 -0.265625 C 7.601562 -0.109375 7.191406 -0.00390625 6.796875 0.046875 C 6.410156 0.109375 5.960938 0.140625 5.453125 0.140625 C 3.972656 0.140625 2.835938 -0.304688 2.046875 -1.203125 C 1.253906 -2.097656 0.859375 -3.367188 0.859375 -5.015625 C 0.859375 -6.046875 1.046875 -6.945312 1.421875 -7.71875 C 1.804688 -8.488281 2.359375 -9.082031 3.078125 -9.5 C 3.804688 -9.925781 4.664062 -10.140625 5.65625 -10.140625 C 6.707031 -10.140625 7.628906 -9.941406 8.421875 -9.546875 L 7.90625 -8.484375 C 7.113281 -8.847656 6.359375 -9.03125 5.640625 -9.03125 Z M 5.640625 -9.03125 "/></g></g><g style="fill:#000000;fill-opacity:1;"><g transform="translate(177.240865, 56.18408)"><path style="stroke:none" d="M 9 0 L 7.75 0 L 7.75 -4.65625 L 2.625 -4.65625 L 2.625 0 L 1.359375 0 L 1.359375 -10 L 2.625 -10 L 2.625 -5.765625 L 7.75 -5.765625 L 7.75 -10 L 9 -10 Z M 9 0 "/></g></g><g style="fill:#000000;fill-opacity:1;"><g transform="translate(187.618848, 58.43408)"><path style="stroke:none" d="M 4.140625 -4.59375 C 4.140625 -4.207031 4.03125 -3.890625 3.8125 -3.640625 C 3.601562 -3.398438 3.300781 -3.238281 2.90625 -3.15625 L 2.90625 -3.125 C 3.382812 -3.0625 3.738281 -2.90625 3.96875 -2.65625 C 4.207031 -2.414062 4.328125 -2.097656 4.328125 -1.703125 C 4.328125 -1.128906 4.128906 -0.6875 3.734375 -0.375 C 3.335938 -0.0703125 2.769531 0.078125 2.03125 0.078125 C 1.707031 0.078125 1.410156 0.0507812 1.140625 0 C 0.878906 -0.0390625 0.625 -0.117188 0.375 -0.234375 L 0.375 -0.9375 C 0.632812 -0.8125 0.90625 -0.710938 1.1875 -0.640625 C 1.476562 -0.566406 1.757812 -0.53125 2.03125 -0.53125 C 3.039062 -0.53125 3.546875 -0.925781 3.546875 -1.71875 C 3.546875 -2.425781 2.988281 -2.78125 1.875 -2.78125 L 1.296875 -2.78125 L 1.296875 -3.40625 L 1.890625 -3.40625 C 2.359375 -3.40625 2.722656 -3.503906 2.984375 -3.703125 C 3.253906 -3.910156 3.390625 -4.191406 3.390625 -4.546875 C 3.390625 -4.835938 3.289062 -5.0625 3.09375 -5.21875 C 2.90625 -5.382812 2.640625 -5.46875 2.296875 -5.46875 C 2.023438 -5.46875 1.773438 -5.429688 1.546875 -5.359375 C 1.328125 -5.285156 1.070312 -5.148438 0.78125 -4.953125 L 0.40625 -5.46875 C 0.65625 -5.65625 0.941406 -5.804688 1.265625 -5.921875 C 1.585938 -6.035156 1.925781 -6.09375 2.28125 -6.09375 C 2.875 -6.09375 3.332031 -5.957031 3.65625 -5.6875 C 3.976562 -5.414062 4.140625 -5.050781 4.140625 -4.59375 Z M 4.140625 -4.59375 "/></g></g><path style="fill:none;stroke-width:1;stroke-linecap:butt;stroke-linejoin:miter;stroke:#000000;stroke-opacity:1;stroke-miterlimit:4;" d="M -0.00137189 0.500458 L 9.12891 0.500458 " transform="matrix(0,0.739726,-0.739726,0,174.674889,59.571327)"/></g></svg>