<svg xmlns="http://www.w3.org/2000/svg" xmlns:xlink="http://www.w3.org/1999/xlink" width="400" zoomAndPan="magnify" viewBox="0 0 300 149.999998" height="200" preserveAspectRatio="xMidYMid meet" version="1.2"><defs><clipPath id="0b5c852822"><path d="M 118.441406 70.648438 L 146.941406 70.648438 L 146.941406 102.898438 L 118.441406 102.898438 Z M 118.441406 70.648438 "/></clipPath></defs><g id="d60f724e7d"><g clip-rule="nonzero" clip-path="url(#0b5c852822)"><path style=" stroke:none;fill-rule:nonzero;fill:#00bf63;fill-opacity:1;" d="M 132.402344 70.652344 L 118.441406 78.714844 L 118.441406 94.835938 L 132.402344 102.898438 L 146.367188 94.835938 L 146.367188 78.714844 Z M 145.035156 94.070312 L 132.402344 101.363281 L 119.769531 94.070312 L 119.769531 79.480469 L 132.402344 72.1875 L 145.035156 79.480469 Z M 123.425781 91.574219 L 132.734375 96.949219 L 132.070312 98.097656 L 122.761719 92.726562 Z M 132.070312 75.449219 L 132.734375 76.601562 L 123.425781 81.976562 L 122.761719 80.824219 Z M 142.375 92.148438 L 141.046875 92.148438 L 141.046875 81.402344 L 142.375 81.402344 Z M 142.375 92.148438 "/></g><path style="fill:none;stroke-width:1;stroke-linecap:butt;stroke-linejoin:miter;stroke:#00bf63;stroke-opacity:1;stroke-miterlimit:4;" d="M 0.000451575 0.497402 L 11.308025 0.497402 " transform="matrix(0,0.73029,-0.73029,0,132.890592,63.101233)"/><g style="fill:#00bf63;fill-opacity:1;"><g transform="translate(128.679196, 59.693146)"><path style="stroke:none" d="M 5.3125 -8.5 C 4.289062 -8.5 3.488281 -8.160156 2.90625 -7.484375 C 2.332031 -6.804688 2.046875 -5.878906 2.046875 -4.703125 C 2.046875 -3.484375 2.328125 -2.546875 2.890625 -1.890625 C 3.453125 -1.234375 4.253906 -0.90625 5.296875 -0.90625 C 5.960938 -0.90625 6.710938 -1.03125 7.546875 -1.28125 L 7.546875 -0.25 C 7.148438 -0.101562 6.765625 -0.00390625 6.390625 0.046875 C 6.023438 0.0976562 5.601562 0.125 5.125 0.125 C 3.738281 0.125 2.671875 -0.296875 1.921875 -1.140625 C 1.171875 -1.984375 0.796875 -3.175781 0.796875 -4.71875 C 0.796875 -5.6875 0.972656 -6.535156 1.328125 -7.265625 C 1.691406 -7.992188 2.21875 -8.550781 2.90625 -8.9375 C 3.59375 -9.332031 4.394531 -9.53125 5.3125 -9.53125 C 6.3125 -9.53125 7.179688 -9.347656 7.921875 -8.984375 L 7.4375 -7.984375 C 6.6875 -8.328125 5.976562 -8.5 5.3125 -8.5 Z M 5.3125 -8.5 "/></g></g><g style="fill:#00bf63;fill-opacity:1;"><g transform="translate(137.004745, 59.693146)"><path style="stroke:none" d="M 9.484375 -4.71875 C 9.484375 -3.207031 9.101562 -2.019531 8.34375 -1.15625 C 7.582031 -0.300781 6.519531 0.125 5.15625 0.125 C 3.769531 0.125 2.695312 -0.296875 1.9375 -1.140625 C 1.175781 -1.984375 0.796875 -3.179688 0.796875 -4.734375 C 0.796875 -6.253906 1.171875 -7.4375 1.921875 -8.28125 C 2.679688 -9.125 3.765625 -9.546875 5.171875 -9.546875 C 6.523438 -9.546875 7.582031 -9.117188 8.34375 -8.265625 C 9.101562 -7.410156 9.484375 -6.226562 9.484375 -4.71875 Z M 2.046875 -4.71875 C 2.046875 -3.46875 2.3125 -2.515625 2.84375 -1.859375 C 3.375 -1.210938 4.144531 -0.890625 5.15625 -0.890625 C 6.15625 -0.890625 6.914062 -1.210938 7.4375 -1.859375 C 7.96875 -2.503906 8.234375 -3.457031 8.234375 -4.71875 C 8.234375 -5.96875 7.972656 -6.910156 7.453125 -7.546875 C 6.929688 -8.191406 6.171875 -8.515625 5.171875 -8.515625 C 4.148438 -8.515625 3.375 -8.191406 2.84375 -7.546875 C 2.3125 -6.898438 2.046875 -5.957031 2.046875 -4.71875 Z M 2.046875 -4.71875 "/></g></g><path style="fill:none;stroke-width:1;stroke-linecap:butt;stroke-linejoin:miter;stroke:#00bf63;stroke-opacity:1;stroke-miterlimit:4;" d="M 0.000380369 0.502079 L 11.307149 0.501255 " transform="matrix(-0.619817,0.3862,-0.3862,-0.619817,152.639451,75.264175)"/><g style="fill:#00bf63;fill-opacity:1;"><g transform="translate(153.275979, 75.419906)"><path style="stroke:none" d="M 9.484375 -4.71875 C 9.484375 -3.207031 9.101562 -2.019531 8.34375 -1.15625 C 7.582031 -0.300781 6.519531 0.125 5.15625 0.125 C 3.769531 0.125 2.695312 -0.296875 1.9375 -1.140625 C 1.175781 -1.984375 0.796875 -3.179688 0.796875 -4.734375 C 0.796875 -6.253906 1.171875 -7.4375 1.921875 -8.28125 C 2.679688 -9.125 3.765625 -9.546875 5.171875 -9.546875 C 6.523438 -9.546875 7.582031 -9.117188 8.34375 -8.265625 C 9.101562 -7.410156 9.484375 -6.226562 9.484375 -4.71875 Z M 2.046875 -4.71875 C 2.046875 -3.46875 2.3125 -2.515625 2.84375 -1.859375 C 3.375 -1.210938 4.144531 -0.890625 5.15625 -0.890625 C 6.15625 -0.890625 6.914062 -1.210938 7.4375 -1.859375 C 7.96875 -2.503906 8.234375 -3.457031 8.234375 -4.71875 C 8.234375 -5.96875 7.972656 -6.910156 7.453125 -7.546875 C 6.929688 -8.191406 6.171875 -8.515625 5.171875 -8.515625 C 4.148438 -8.515625 3.375 -8.191406 2.84375 -7.546875 C 2.3125 -6.898438 2.046875 -5.957031 2.046875 -4.71875 Z M 2.046875 -4.71875 "/></g></g><g style="fill:#00bf63;fill-opacity:1;"><g transform="translate(163.563888, 75.419906)"><path style="stroke:none" d="M 8.46875 0 L 7.28125 0 L 7.28125 -4.390625 L 2.46875 -4.390625 L 2.46875 0 L 1.28125 0 L 1.28125 -9.40625 L 2.46875 -9.40625 L 2.46875 -5.421875 L 7.28125 -5.421875 L 7.28125 -9.40625 L 8.46875 -9.40625 Z M 8.46875 0 "/></g></g><g style="fill:#000000;fill-opacity:1;"><g transform="translate(146.602465, 59.692011)"><path style="stroke:none" d="M 10.078125 -5.015625 C 10.078125 -3.410156 9.671875 -2.148438 8.859375 -1.234375 C 8.054688 -0.316406 6.925781 0.140625 5.46875 0.140625 C 4 0.140625 2.863281 -0.304688 2.0625 -1.203125 C 1.257812 -2.109375 0.859375 -3.382812 0.859375 -5.03125 C 0.859375 -6.65625 1.253906 -7.914062 2.046875 -8.8125 C 2.847656 -9.707031 3.992188 -10.15625 5.484375 -10.15625 C 6.929688 -10.15625 8.054688 -9.695312 8.859375 -8.78125 C 9.671875 -7.875 10.078125 -6.617188 10.078125 -5.015625 Z M 2.1875 -5.015625 C 2.1875 -3.691406 2.460938 -2.679688 3.015625 -1.984375 C 3.578125 -1.296875 4.394531 -0.953125 5.46875 -0.953125 C 6.539062 -0.953125 7.351562 -1.289062 7.90625 -1.96875 C 8.46875 -2.65625 8.75 -3.671875 8.75 -5.015625 C 8.75 -6.347656 8.472656 -7.351562 7.921875 -8.03125 C 7.367188 -8.707031 6.554688 -9.046875 5.484375 -9.046875 C 4.398438 -9.046875 3.578125 -8.703125 3.015625 -8.015625 C 2.460938 -7.328125 2.1875 -6.328125 2.1875 -5.015625 Z M 2.1875 -5.015625 "/></g></g><g style="fill:#000000;fill-opacity:1;"><g transform="translate(157.527029, 59.692011)"><path style="stroke:none" d="M 5.640625 -9.03125 C 4.566406 -9.03125 3.722656 -8.671875 3.109375 -7.953125 C 2.492188 -7.234375 2.1875 -6.25 2.1875 -5 C 2.1875 -3.707031 2.484375 -2.710938 3.078125 -2.015625 C 3.671875 -1.316406 4.519531 -0.96875 5.625 -0.96875 C 6.332031 -0.96875 7.132812 -1.097656 8.03125 -1.359375 L 8.03125 -0.265625 C 7.601562 -0.109375 7.191406 -0.00390625 6.796875 0.046875 C 6.410156 0.109375 5.960938 0.140625 5.453125 0.140625 C 3.972656 0.140625 2.835938 -0.304688 2.046875 -1.203125 C 1.253906 -2.097656 0.859375 -3.367188 0.859375 -5.015625 C 0.859375 -6.046875 1.046875 -6.945312 1.421875 -7.71875 C 1.804688 -8.488281 2.359375 -9.082031 3.078125 -9.5 C 3.804688 -9.925781 4.664062 -10.140625 5.65625 -10.140625 C 6.707031 -10.140625 7.628906 -9.941406 8.421875 -9.546875 L 7.90625 -8.484375 C 7.113281 -8.847656 6.359375 -9.03125 5.640625 -9.03125 Z M 5.640625 -9.03125 "/></g></g><g style="fill:#000000;fill-opacity:1;"><g transform="translate(166.367795, 59.692011)"><path style="stroke:none" d="M 9 0 L 7.75 0 L 7.75 -4.65625 L 2.625 -4.65625 L 2.625 0 L 1.359375 0 L 1.359375 -10 L 2.625 -10 L 2.625 -5.765625 L 7.75 -5.765625 L 7.75 -10 L 9 -10 Z M 9 0 "/></g></g><g style="fill:#000000;fill-opacity:1;"><g transform="translate(176.743088, 61.942011)"><path style="stroke:none" d="M 4.140625 -4.59375 C 4.140625 -4.207031 4.03125 -3.890625 3.8125 -3.640625 C 3.601562 -3.398438 3.300781 -3.238281 2.90625 -3.15625 L 2.90625 -3.125 C 3.382812 -3.0625 3.738281 -2.90625 3.96875 -2.65625 C 4.207031 -2.414062 4.328125 -2.097656 4.328125 -1.703125 C 4.328125 -1.128906 4.128906 -0.6875 3.734375 -0.375 C 3.335938 -0.0703125 2.769531 0.078125 2.03125 0.078125 C 1.707031 0.078125 1.410156 0.0507812 1.140625 0 C 0.878906 -0.0390625 0.625 -0.117188 0.375 -0.234375 L 0.375 -0.9375 C 0.632812 -0.8125 0.90625 -0.710938 1.1875 -0.640625 C 1.476562 -0.566406 1.757812 -0.53125 2.03125 -0.53125 C 3.039062 -0.53125 3.546875 -0.925781 3.546875 -1.71875 C 3.546875 -2.425781 2.988281 -2.78125 1.875 -2.78125 L 1.296875 -2.78125 L 1.296875 -3.40625 L 1.890625 -3.40625 C 2.359375 -3.40625 2.722656 -3.503906 2.984375 -3.703125 C 3.253906 -3.910156 3.390625 -4.191406 3.390625 -4.546875 C 3.390625 -4.835938 3.289062 -5.0625 3.09375 -5.21875 C 2.90625 -5.382812 2.640625 -5.46875 2.296875 -5.46875 C 2.023438 -5.46875 1.773438 -5.429688 1.546875 -5.359375 C 1.328125 -5.285156 1.070312 -5.148438 0.78125 -4.953125 L 0.40625 -5.46875 C 0.65625 -5.65625 0.941406 -5.804688 1.265625 -5.921875 C 1.585938 -6.035156 1.925781 -6.09375 2.28125 -6.09375 C 2.875 -6.09375 3.332031 -5.957031 3.65625 -5.6875 C 3.976562 -5.414062 4.140625 -5.050781 4.140625 -4.59375 Z M 4.140625 -4.59375 "/></g></g></g></svg>