<svg xmlns="http://www.w3.org/2000/svg" xmlns:xlink="http://www.w3.org/1999/xlink" width="400" zoomAndPan="magnify" viewBox="0 0 300 149.999998" height="200" preserveAspectRatio="xMidYMid meet" version="1.2"><defs><clipPath id="786fb34c12"><path d="M 115.460938 70.386719 L 143.960938 70.386719 L 143.960938 102.636719 L 115.460938 102.636719 Z M 115.460938 70.386719 "/></clipPath></defs><g id="ceeff39897"><g clip-rule="nonzero" clip-path="url(#786fb34c12)"><path style=" stroke:none;fill-rule:nonzero;fill:#00bf63;fill-opacity:1;" d="M 129.425781 70.390625 L 115.460938 78.449219 L 115.460938 94.574219 L 129.425781 102.632812 L 143.386719 94.574219 L 143.386719 78.449219 Z M 142.058594 93.804688 L 129.425781 101.097656 L 116.792969 93.804688 L 116.792969 79.21875 L 129.425781 71.925781 L 142.058594 79.21875 Z M 120.449219 91.308594 L 129.757812 96.683594 L 129.09375 97.835938 L 119.785156 92.460938 Z M 129.09375 75.1875 L 129.757812 76.339844 L 120.449219 81.714844 L 119.785156 80.5625 Z M 139.398438 91.886719 L 138.066406 91.886719 L 138.066406 81.136719 L 139.398438 81.136719 Z M 139.398438 91.886719 "/></g><path style="fill:none;stroke-width:1;stroke-linecap:butt;stroke-linejoin:miter;stroke:#00bf63;stroke-opacity:1;stroke-miterlimit:4;" d="M -0.00212523 0.499722 L 11.310797 0.499722 " transform="matrix(0,0.73029,-0.73029,0,129.911817,62.83749)"/><g style="fill:#00bf63;fill-opacity:1;"><g transform="translate(126.081486, 59.206899)"><path style="stroke:none" d="M 5.3125 -8.5 C 4.289062 -8.5 3.488281 -8.160156 2.90625 -7.484375 C 2.332031 -6.804688 2.046875 -5.878906 2.046875 -4.703125 C 2.046875 -3.484375 2.328125 -2.546875 2.890625 -1.890625 C 3.453125 -1.234375 4.253906 -0.90625 5.296875 -0.90625 C 5.960938 -0.90625 6.710938 -1.03125 7.546875 -1.28125 L 7.546875 -0.25 C 7.148438 -0.101562 6.765625 -0.00390625 6.390625 0.046875 C 6.023438 0.0976562 5.601562 0.125 5.125 0.125 C 3.738281 0.125 2.671875 -0.296875 1.921875 -1.140625 C 1.171875 -1.984375 0.796875 -3.175781 0.796875 -4.71875 C 0.796875 -5.6875 0.972656 -6.535156 1.328125 -7.265625 C 1.691406 -7.992188 2.21875 -8.550781 2.90625 -8.9375 C 3.59375 -9.332031 4.394531 -9.53125 5.3125 -9.53125 C 6.3125 -9.53125 7.179688 -9.347656 7.921875 -8.984375 L 7.4375 -7.984375 C 6.6875 -8.328125 5.976562 -8.5 5.3125 -8.5 Z M 5.3125 -8.5 "/></g></g><g style="fill:#00bf63;fill-opacity:1;"><g transform="translate(134.407036, 59.206899)"><path style="stroke:none" d="M 9.484375 -4.71875 C 9.484375 -3.207031 9.101562 -2.019531 8.34375 -1.15625 C 7.582031 -0.300781 6.519531 0.125 5.15625 0.125 C 3.769531 0.125 2.695312 -0.296875 1.9375 -1.140625 C 1.175781 -1.984375 0.796875 -3.179688 0.796875 -4.734375 C 0.796875 -6.253906 1.171875 -7.4375 1.921875 -8.28125 C 2.679688 -9.125 3.765625 -9.546875 5.171875 -9.546875 C 6.523438 -9.546875 7.582031 -9.117188 8.34375 -8.265625 C 9.101562 -7.410156 9.484375 -6.226562 9.484375 -4.71875 Z M 2.046875 -4.71875 C 2.046875 -3.46875 2.3125 -2.515625 2.84375 -1.859375 C 3.375 -1.210938 4.144531 -0.890625 5.15625 -0.890625 C 6.15625 -0.890625 6.914062 -1.210938 7.4375 -1.859375 C 7.96875 -2.503906 8.234375 -3.457031 8.234375 -4.71875 C 8.234375 -5.96875 7.972656 -6.910156 7.453125 -7.546875 C 6.929688 -8.191406 6.171875 -8.515625 5.171875 -8.515625 C 4.148438 -8.515625 3.375 -8.191406 2.84375 -7.546875 C 2.3125 -6.898438 2.046875 -5.957031 2.046875 -4.71875 Z M 2.046875 -4.71875 "/></g></g><g style="fill:#000000;fill-opacity:1;"><g transform="translate(144.776538, 59.955759)"><path style="stroke:none" d="M 10.078125 -5.015625 C 10.078125 -3.410156 9.671875 -2.148438 8.859375 -1.234375 C 8.054688 -0.316406 6.925781 0.140625 5.46875 0.140625 C 4 0.140625 2.863281 -0.304688 2.0625 -1.203125 C 1.257812 -2.109375 0.859375 -3.382812 0.859375 -5.03125 C 0.859375 -6.65625 1.253906 -7.914062 2.046875 -8.8125 C 2.847656 -9.707031 3.992188 -10.15625 5.484375 -10.15625 C 6.929688 -10.15625 8.054688 -9.695312 8.859375 -8.78125 C 9.671875 -7.875 10.078125 -6.617188 10.078125 -5.015625 Z M 2.1875 -5.015625 C 2.1875 -3.691406 2.460938 -2.679688 3.015625 -1.984375 C 3.578125 -1.296875 4.394531 -0.953125 5.46875 -0.953125 C 6.539062 -0.953125 7.351562 -1.289062 7.90625 -1.96875 C 8.46875 -2.65625 8.75 -3.671875 8.75 -5.015625 C 8.75 -6.347656 8.472656 -7.351562 7.921875 -8.03125 C 7.367188 -8.707031 6.554688 -9.046875 5.484375 -9.046875 C 4.398438 -9.046875 3.578125 -8.703125 3.015625 -8.015625 C 2.460938 -7.328125 2.1875 -6.328125 2.1875 -5.015625 Z M 2.1875 -5.015625 "/></g></g><g style="fill:#000000;fill-opacity:1;"><g transform="translate(155.701102, 59.955759)"><path style="stroke:none" d="M 5.640625 -9.03125 C 4.566406 -9.03125 3.722656 -8.671875 3.109375 -7.953125 C 2.492188 -7.234375 2.1875 -6.25 2.1875 -5 C 2.1875 -3.707031 2.484375 -2.710938 3.078125 -2.015625 C 3.671875 -1.316406 4.519531 -0.96875 5.625 -0.96875 C 6.332031 -0.96875 7.132812 -1.097656 8.03125 -1.359375 L 8.03125 -0.265625 C 7.601562 -0.109375 7.191406 -0.00390625 6.796875 0.046875 C 6.410156 0.109375 5.960938 0.140625 5.453125 0.140625 C 3.972656 0.140625 2.835938 -0.304688 2.046875 -1.203125 C 1.253906 -2.097656 0.859375 -3.367188 0.859375 -5.015625 C 0.859375 -6.046875 1.046875 -6.945312 1.421875 -7.71875 C 1.804688 -8.488281 2.359375 -9.082031 3.078125 -9.5 C 3.804688 -9.925781 4.664062 -10.140625 5.65625 -10.140625 C 6.707031 -10.140625 7.628906 -9.941406 8.421875 -9.546875 L 7.90625 -8.484375 C 7.113281 -8.847656 6.359375 -9.03125 5.640625 -9.03125 Z M 5.640625 -9.03125 "/></g></g><g style="fill:#000000;fill-opacity:1;"><g transform="translate(169.350755, 59.955759)"><path style="stroke:none" d="M 9 0 L 7.75 0 L 7.75 -4.65625 L 2.625 -4.65625 L 2.625 0 L 1.359375 0 L 1.359375 -10 L 2.625 -10 L 2.625 -5.765625 L 7.75 -5.765625 L 7.75 -10 L 9 -10 Z M 9 0 "/></g></g><g style="fill:#000000;fill-opacity:1;"><g transform="translate(164.546068, 62.205759)"><path style="stroke:none" d="M 4.375 0 L 0.40625 0 L 0.40625 -0.609375 L 1.96875 -2.203125 C 2.445312 -2.679688 2.757812 -3.019531 2.90625 -3.21875 C 3.0625 -3.425781 3.175781 -3.625 3.25 -3.8125 C 3.332031 -4.007812 3.375 -4.21875 3.375 -4.4375 C 3.375 -4.757812 3.273438 -5.007812 3.078125 -5.1875 C 2.890625 -5.363281 2.632812 -5.453125 2.3125 -5.453125 C 2.0625 -5.453125 1.828125 -5.410156 1.609375 -5.328125 C 1.390625 -5.242188 1.140625 -5.097656 0.859375 -4.890625 L 0.46875 -5.375 C 1.03125 -5.851562 1.644531 -6.09375 2.3125 -6.09375 C 2.863281 -6.09375 3.300781 -5.945312 3.625 -5.65625 C 3.957031 -5.375 4.125 -4.984375 4.125 -4.484375 C 4.125 -4.222656 4.078125 -3.96875 3.984375 -3.71875 C 3.890625 -3.476562 3.742188 -3.234375 3.546875 -2.984375 C 3.359375 -2.734375 3.039062 -2.382812 2.59375 -1.9375 L 1.34375 -0.703125 L 1.34375 -0.671875 L 4.375 -0.671875 Z M 4.375 0 "/></g></g><g style="fill:#000000;fill-opacity:1;"><g transform="translate(179.733567, 62.205759)"><path style="stroke:none" d="M 2.3125 -3.6875 C 2.9375 -3.6875 3.425781 -3.523438 3.78125 -3.203125 C 4.144531 -2.890625 4.328125 -2.460938 4.328125 -1.921875 C 4.328125 -1.296875 4.128906 -0.804688 3.734375 -0.453125 C 3.335938 -0.0976562 2.785156 0.078125 2.078125 0.078125 C 1.410156 0.078125 0.894531 -0.0234375 0.53125 -0.234375 L 0.53125 -0.9375 C 0.726562 -0.820312 0.96875 -0.726562 1.25 -0.65625 C 1.539062 -0.582031 1.820312 -0.546875 2.09375 -0.546875 C 2.5625 -0.546875 2.925781 -0.65625 3.1875 -0.875 C 3.445312 -1.101562 3.578125 -1.425781 3.578125 -1.84375 C 3.578125 -2.65625 3.070312 -3.0625 2.0625 -3.0625 C 1.738281 -3.0625 1.398438 -3.019531 1.046875 -2.9375 L 0.671875 -3.171875 L 0.90625 -6 L 3.90625 -6 L 3.90625 -5.328125 L 1.53125 -5.328125 L 1.390625 -3.59375 C 1.703125 -3.65625 2.007812 -3.6875 2.3125 -3.6875 Z M 2.3125 -3.6875 "/></g></g></g></svg>