<svg xmlns="http://www.w3.org/2000/svg" xmlns:xlink="http://www.w3.org/1999/xlink" width="400" zoomAndPan="magnify" viewBox="0 0 300 149.999998" height="200" preserveAspectRatio="xMidYMid meet" version="1.2"><defs><clipPath id="46b4d965fa"><path d="M 25.199219 73 L 129 73 L 129 87.605469 L 25.199219 87.605469 Z M 25.199219 73 "/></clipPath></defs><g id="1d70b78b9a"><g clip-rule="nonzero" clip-path="url(#46b4d965fa)"><path style="fill:none;stroke-width:0.6;stroke-linecap:round;stroke-linejoin:miter;stroke:#000000;stroke-opacity:1;stroke-miterlimit:4;" d="M 2.00089 43.000068 L 13.001259 37.000067 L 23.998505 43.000068 L 34.998874 37.000067 L 45.999243 43.000068 L 56.999612 37.000067 L 67.999981 43.000068 L 79.000349 37.000067 " transform="matrix(1.251023,0,0,1.25,25.598402,31.355391)"/></g><path style="fill:none;stroke-width:0.6;stroke-linecap:round;stroke-linejoin:miter;stroke:#000000;stroke-opacity:1;stroke-miterlimit:4;" d="M 2.000344 43.000065 L 13.000713 37.000065 L 24.001082 43.000065 L 35.001451 37.000065 L 45.998697 43.000065 L 56.999066 37.000065 L 67.999435 43.000065 L 78.999804 37.000065 " transform="matrix(1.251023,0,0,1.25,121.92721,7.605393)"/><path style="fill:none;stroke-width:0.6;stroke-linecap:round;stroke-linejoin:miter;stroke:#000000;stroke-opacity:1;stroke-miterlimit:4;" d="M 2.001094 43.000065 L 13.001463 37.000065 L 23.998709 43.000065 L 34.999078 37.000065 L 45.999447 43.000065 L 56.999815 37.000065 L 68.000184 43.000065 L 79.000553 37.000065 " transform="matrix(1.251023,0,0,1.25,149.44971,7.605393)"/><path style="fill:none;stroke-width:0.6;stroke-linecap:round;stroke-linejoin:miter;stroke:#000000;stroke-opacity:1;stroke-miterlimit:4;" d="M 80.998713 25.000065 L 90.000718 20.000065 M 79.000349 37.000067 L 79.000349 24.000065 M 178.000546 18.000065 L 186.000246 22.000065 M 178.999728 9.000063 L 178.999728 18.500065 M 177.001364 9.000063 L 177.001364 18.500065 " transform="matrix(1.251023,0,0,1.25,25.598402,31.355391)"/><g style="fill:#000000;fill-opacity:1;"><g transform="translate(259.530141, 63.844712)"><path style="stroke:none" d="M 7.296875 -3.46875 C 7.296875 -2.75 7.15625 -2.117188 6.875 -1.578125 C 6.601562 -1.035156 6.210938 -0.617188 5.703125 -0.328125 C 5.191406 -0.046875 4.582031 0.09375 3.875 0.09375 C 3.175781 0.09375 2.566406 -0.046875 2.046875 -0.328125 C 1.535156 -0.617188 1.144531 -1.035156 0.875 -1.578125 C 0.601562 -2.117188 0.46875 -2.75 0.46875 -3.46875 C 0.46875 -4.570312 0.769531 -5.429688 1.375 -6.046875 C 1.976562 -6.671875 2.816406 -6.984375 3.890625 -6.984375 C 4.585938 -6.984375 5.191406 -6.84375 5.703125 -6.5625 C 6.222656 -6.28125 6.617188 -5.875 6.890625 -5.34375 C 7.160156 -4.820312 7.296875 -4.195312 7.296875 -3.46875 Z M 6.34375 -3.46875 C 6.34375 -4.320312 6.128906 -4.992188 5.703125 -5.484375 C 5.273438 -5.972656 4.671875 -6.21875 3.890625 -6.21875 C 3.097656 -6.21875 2.488281 -5.976562 2.0625 -5.5 C 1.632812 -5.019531 1.421875 -4.34375 1.421875 -3.46875 C 1.421875 -2.601562 1.632812 -1.914062 2.0625 -1.40625 C 2.5 -0.90625 3.101562 -0.65625 3.875 -0.65625 C 4.675781 -0.65625 5.285156 -0.898438 5.703125 -1.390625 C 6.128906 -1.878906 6.34375 -2.570312 6.34375 -3.46875 Z M 6.34375 -3.46875 "/></g></g><g style="fill:#000000;fill-opacity:1;"><g transform="translate(267.310173, 63.844712)"><path style="stroke:none" d="M 5.46875 0 L 5.46875 -3.1875 L 1.75 -3.1875 L 1.75 0 L 0.828125 0 L 0.828125 -6.875 L 1.75 -6.875 L 1.75 -3.96875 L 5.46875 -3.96875 L 5.46875 -6.875 L 6.40625 -6.875 L 6.40625 0 Z M 5.46875 0 "/></g></g><g style="fill:#000000;fill-opacity:1;"><g transform="translate(244.520987, 41.349401)"><path style="stroke:none" d="M 7.296875 -3.46875 C 7.296875 -2.75 7.15625 -2.117188 6.875 -1.578125 C 6.601562 -1.035156 6.210938 -0.617188 5.703125 -0.328125 C 5.191406 -0.046875 4.582031 0.09375 3.875 0.09375 C 3.175781 0.09375 2.566406 -0.046875 2.046875 -0.328125 C 1.535156 -0.617188 1.144531 -1.035156 0.875 -1.578125 C 0.601562 -2.117188 0.46875 -2.75 0.46875 -3.46875 C 0.46875 -4.570312 0.769531 -5.429688 1.375 -6.046875 C 1.976562 -6.671875 2.816406 -6.984375 3.890625 -6.984375 C 4.585938 -6.984375 5.191406 -6.84375 5.703125 -6.5625 C 6.222656 -6.28125 6.617188 -5.875 6.890625 -5.34375 C 7.160156 -4.820312 7.296875 -4.195312 7.296875 -3.46875 Z M 6.34375 -3.46875 C 6.34375 -4.320312 6.128906 -4.992188 5.703125 -5.484375 C 5.273438 -5.972656 4.671875 -6.21875 3.890625 -6.21875 C 3.097656 -6.21875 2.488281 -5.976562 2.0625 -5.5 C 1.632812 -5.019531 1.421875 -4.34375 1.421875 -3.46875 C 1.421875 -2.601562 1.632812 -1.914062 2.0625 -1.40625 C 2.5 -0.90625 3.101562 -0.65625 3.875 -0.65625 C 4.675781 -0.65625 5.285156 -0.898438 5.703125 -1.390625 C 6.128906 -1.878906 6.34375 -2.570312 6.34375 -3.46875 Z M 6.34375 -3.46875 "/></g></g></g></svg>