<svg xmlns="http://www.w3.org/2000/svg" xmlns:xlink="http://www.w3.org/1999/xlink" width="400" zoomAndPan="magnify" viewBox="0 0 300 149.999998" height="200" preserveAspectRatio="xMidYMid meet" version="1.2"><g id="049e859bf6"><path style=" stroke:none;fill-rule:nonzero;fill:#000000;fill-opacity:1;" d="M 239.121094 80.964844 L 239.121094 80.40625 L 251.800781 73.121094 L 251.800781 73.65625 Z M 239.121094 80.964844 "/><path style=" stroke:none;fill-rule:nonzero;fill:#000000;fill-opacity:1;" d="M 226.414062 73.65625 L 226.414062 73.121094 L 239.121094 80.40625 L 239.121094 80.964844 Z M 226.414062 73.65625 "/><path style=" stroke:none;fill-rule:nonzero;fill:#000000;fill-opacity:1;" d="M 213.734375 80.964844 L 213.734375 80.40625 L 226.414062 73.121094 L 226.414062 73.65625 Z M 213.734375 80.964844 "/><path style=" stroke:none;fill-rule:nonzero;fill:#000000;fill-opacity:1;" d="M 201.027344 73.65625 L 201.027344 73.121094 L 213.734375 80.40625 L 213.734375 80.964844 Z M 201.027344 73.65625 "/><path style=" stroke:none;fill-rule:nonzero;fill:#000000;fill-opacity:1;" d="M 188.34375 80.964844 L 188.34375 80.40625 L 201.027344 73.121094 L 201.027344 73.65625 Z M 188.34375 80.964844 "/><path style=" stroke:none;fill-rule:nonzero;fill:#000000;fill-opacity:1;" d="M 175.640625 73.65625 L 175.640625 73.121094 L 188.34375 80.40625 L 188.34375 80.964844 Z M 175.640625 73.65625 "/><path style=" stroke:none;fill-rule:nonzero;fill:#000000;fill-opacity:1;" d="M 162.957031 80.964844 L 162.957031 80.40625 L 175.640625 73.121094 L 175.640625 73.65625 Z M 162.957031 80.964844 "/><path style=" stroke:none;fill-rule:nonzero;fill:#000000;fill-opacity:1;" d="M 151.230469 71.855469 C 151.34375 71.863281 151.472656 71.855469 151.648438 71.832031 C 151.945312 71.796875 152.226562 71.675781 152.445312 71.46875 C 152.695312 71.238281 152.878906 70.910156 152.949219 70.457031 L 152.929688 70.457031 C 152.71875 70.714844 152.414062 70.867188 152.027344 70.867188 C 151.34375 70.867188 150.902344 70.355469 150.902344 69.699219 C 150.902344 68.988281 151.429688 68.355469 152.210938 68.355469 C 152.988281 68.355469 153.46875 68.980469 153.46875 69.957031 C 153.46875 70.792969 153.1875 71.375 152.8125 71.738281 C 152.519531 72.019531 152.117188 72.199219 151.707031 72.246094 C 151.519531 72.269531 151.347656 72.28125 151.230469 72.277344 Z M 152.160156 68.746094 C 151.726562 68.746094 151.417969 69.132812 151.417969 69.671875 C 151.417969 70.144531 151.703125 70.476562 152.148438 70.476562 C 152.496094 70.476562 152.765625 70.308594 152.90625 70.078125 C 152.929688 70.035156 152.945312 69.976562 152.945312 69.894531 C 152.953125 69.238281 152.707031 68.746094 152.167969 68.746094 Z M 152.160156 68.746094 "/><path style=" stroke:none;fill-rule:nonzero;fill:#000000;fill-opacity:1;" d="M 151.230469 71.855469 C 151.34375 71.863281 151.472656 71.855469 151.648438 71.832031 C 151.945312 71.796875 152.226562 71.675781 152.445312 71.46875 C 152.695312 71.238281 152.878906 70.910156 152.949219 70.457031 L 152.929688 70.457031 C 152.71875 70.714844 152.414062 70.867188 152.027344 70.867188 C 151.34375 70.867188 150.902344 70.355469 150.902344 69.699219 C 150.902344 68.988281 151.429688 68.355469 152.210938 68.355469 C 152.988281 68.355469 153.46875 68.980469 153.46875 69.957031 C 153.46875 70.792969 153.1875 71.375 152.8125 71.738281 C 152.519531 72.019531 152.117188 72.199219 151.707031 72.246094 C 151.519531 72.269531 151.347656 72.28125 151.230469 72.277344 Z M 152.160156 68.746094 C 151.726562 68.746094 151.417969 69.132812 151.417969 69.671875 C 151.417969 70.144531 151.703125 70.476562 152.148438 70.476562 C 152.496094 70.476562 152.765625 70.308594 152.90625 70.078125 C 152.929688 70.035156 152.945312 69.976562 152.945312 69.894531 C 152.953125 69.238281 152.707031 68.746094 152.167969 68.746094 Z M 152.160156 68.746094 "/><path style=" stroke:none;fill-rule:nonzero;fill:#000000;fill-opacity:1;" d="M 150.203125 73.632812 L 150.324219 73.144531 L 162.957031 80.40625 L 162.957031 80.964844 Z M 150.203125 73.632812 "/><path style=" stroke:none;fill-rule:nonzero;fill:#000000;fill-opacity:1;" d="M 264.445312 83.679688 C 263.046875 83.679688 262.078125 82.601562 262.078125 81.011719 C 262.078125 79.34375 263.109375 78.25 264.515625 78.25 C 265.964844 78.25 266.894531 79.351562 266.894531 80.910156 C 266.894531 82.710938 265.792969 83.679688 264.453125 83.679688 Z M 264.484375 83.125 C 265.566406 83.125 266.175781 82.132812 266.175781 80.941406 C 266.175781 79.898438 265.628906 78.804688 264.492188 78.804688 C 263.359375 78.804688 262.796875 79.859375 262.796875 80.996094 C 262.796875 82.101562 263.40625 83.125 264.476562 83.125 Z M 264.484375 83.125 "/><path style=" stroke:none;fill-rule:nonzero;fill:#000000;fill-opacity:1;" d="M 268.457031 78.335938 L 268.457031 80.535156 L 271.007812 80.535156 L 271.007812 78.335938 L 271.695312 78.335938 L 271.695312 83.59375 L 271.007812 83.59375 L 271.007812 81.128906 L 268.457031 81.128906 L 268.457031 83.59375 L 267.769531 83.59375 L 267.769531 78.335938 Z M 268.457031 78.335938 "/><path style=" stroke:none;fill-rule:nonzero;fill:#000000;fill-opacity:1;" d="M 260.476562 78.113281 L 260.230469 78.527344 L 251.800781 73.65625 L 251.800781 73.121094 Z M 260.476562 78.113281 "/><path style=" stroke:none;fill-rule:nonzero;fill:#000000;fill-opacity:1;" d="M 251.765625 61.808594 C 250.367188 61.808594 249.398438 60.730469 249.398438 59.140625 C 249.398438 57.472656 250.429688 56.382812 251.835938 56.382812 C 253.285156 56.382812 254.214844 57.480469 254.214844 59.039062 C 254.214844 60.839844 253.113281 61.808594 251.773438 61.808594 Z M 251.804688 61.253906 C 252.886719 61.253906 253.496094 60.265625 253.496094 59.070312 C 253.496094 58.027344 252.949219 56.933594 251.816406 56.933594 C 250.679688 56.933594 250.117188 57.988281 250.117188 59.125 C 250.117188 60.234375 250.726562 61.253906 251.796875 61.253906 Z M 251.804688 61.253906 "/><path style=" stroke:none;fill-rule:nonzero;fill:#000000;fill-opacity:1;" d="M 250.679688 64.0625 L 251.167969 64.0625 L 251.167969 73.902344 L 250.679688 73.902344 Z M 250.679688 64.0625 "/><path style=" stroke:none;fill-rule:nonzero;fill:#000000;fill-opacity:1;" d="M 252.4375 64.0625 L 252.925781 64.0625 L 252.925781 73.902344 L 252.4375 73.902344 Z M 252.4375 64.0625 "/><path style=" stroke:none;fill-rule:nonzero;fill:#000000;fill-opacity:1;" d="M 135.664062 73.632812 L 135.542969 73.144531 L 150.324219 73.144531 L 150.203125 73.632812 Z M 135.664062 73.632812 "/><path style=" stroke:none;fill-rule:nonzero;fill:#000000;fill-opacity:1;" d="M 136.078125 74.898438 L 149.789062 74.898438 L 149.789062 75.386719 L 136.078125 75.386719 Z M 136.078125 74.898438 "/><path style=" stroke:none;fill-rule:nonzero;fill:#000000;fill-opacity:1;" d="M 122.910156 80.964844 L 122.910156 80.40625 L 135.542969 73.144531 L 135.664062 73.632812 Z M 122.910156 80.964844 "/><path style=" stroke:none;fill-rule:nonzero;fill:#000000;fill-opacity:1;" d="M 110.511719 68.921875 L 110.5 68.921875 L 109.839844 69.28125 L 109.738281 68.886719 L 110.570312 68.445312 L 111.011719 68.445312 L 111.011719 72.242188 L 110.511719 72.242188 Z M 110.511719 68.921875 "/><path style=" stroke:none;fill-rule:nonzero;fill:#000000;fill-opacity:1;" d="M 112.402344 72.242188 L 112.402344 71.925781 L 112.804688 71.535156 C 113.777344 70.613281 114.222656 70.121094 114.222656 69.550781 C 114.222656 69.164062 114.042969 68.808594 113.472656 68.808594 C 113.128906 68.808594 112.839844 68.984375 112.664062 69.128906 L 112.5 68.765625 C 112.757812 68.550781 113.140625 68.378906 113.578125 68.378906 C 114.394531 68.378906 114.738281 68.941406 114.738281 69.484375 C 114.738281 70.1875 114.230469 70.753906 113.425781 71.523438 L 113.128906 71.804688 L 113.128906 71.816406 L 114.832031 71.816406 L 114.832031 72.242188 Z M 112.402344 72.242188 "/><path style=" stroke:none;fill-rule:nonzero;fill:#000000;fill-opacity:1;" d="M 110.511719 68.921875 L 110.5 68.921875 L 109.839844 69.28125 L 109.738281 68.886719 L 110.570312 68.445312 L 111.011719 68.445312 L 111.011719 72.242188 L 110.511719 72.242188 Z M 110.511719 68.921875 "/><path style=" stroke:none;fill-rule:nonzero;fill:#000000;fill-opacity:1;" d="M 112.402344 72.242188 L 112.402344 71.925781 L 112.804688 71.535156 C 113.777344 70.613281 114.222656 70.121094 114.222656 69.550781 C 114.222656 69.164062 114.042969 68.808594 113.472656 68.808594 C 113.128906 68.808594 112.839844 68.984375 112.664062 69.128906 L 112.5 68.765625 C 112.757812 68.550781 113.140625 68.378906 113.578125 68.378906 C 114.394531 68.378906 114.738281 68.941406 114.738281 69.484375 C 114.738281 70.1875 114.230469 70.753906 113.425781 71.523438 L 113.128906 71.804688 L 113.128906 71.816406 L 114.832031 71.816406 L 114.832031 72.242188 Z M 112.402344 72.242188 "/><path style=" stroke:none;fill-rule:nonzero;fill:#000000;fill-opacity:1;" d="M 110.179688 73.632812 L 110.300781 73.144531 L 122.910156 80.40625 L 122.910156 80.964844 Z M 110.179688 73.632812 "/><path style=" stroke:none;fill-rule:nonzero;fill:#000000;fill-opacity:1;" d="M 95.640625 73.632812 L 95.519531 73.144531 L 110.300781 73.144531 L 110.179688 73.632812 Z M 95.640625 73.632812 "/><path style=" stroke:none;fill-rule:nonzero;fill:#000000;fill-opacity:1;" d="M 96.054688 74.898438 L 109.761719 74.898438 L 109.761719 75.386719 L 96.054688 75.386719 Z M 96.054688 74.898438 "/><path style=" stroke:none;fill-rule:nonzero;fill:#000000;fill-opacity:1;" d="M 82.886719 80.988281 L 82.886719 80.429688 L 95.519531 73.144531 L 95.640625 73.632812 Z M 82.886719 80.988281 "/><path style=" stroke:none;fill-rule:nonzero;fill:#000000;fill-opacity:1;" d="M 70.464844 68.824219 L 70.453125 68.824219 L 69.792969 69.179688 L 69.691406 68.789062 L 70.523438 68.34375 L 70.964844 68.34375 L 70.964844 72.140625 L 70.464844 72.140625 Z M 70.464844 68.824219 "/><path style=" stroke:none;fill-rule:nonzero;fill:#000000;fill-opacity:1;" d="M 74.628906 68.777344 L 73.175781 68.777344 L 73.027344 69.753906 C 73.113281 69.742188 73.199219 69.730469 73.339844 69.730469 C 73.636719 69.730469 73.925781 69.792969 74.160156 69.933594 C 74.457031 70.097656 74.703125 70.429688 74.703125 70.910156 C 74.703125 71.652344 74.113281 72.207031 73.285156 72.207031 C 72.867188 72.207031 72.523438 72.089844 72.335938 71.972656 L 72.464844 71.582031 C 72.625 71.675781 72.933594 71.792969 73.285156 71.792969 C 73.765625 71.792969 74.1875 71.476562 74.183594 70.960938 C 74.183594 70.476562 73.847656 70.125 73.089844 70.125 C 72.867188 70.125 72.699219 70.144531 72.558594 70.167969 L 72.804688 68.34375 L 74.628906 68.34375 Z M 74.628906 68.777344 "/><path style=" stroke:none;fill-rule:nonzero;fill:#000000;fill-opacity:1;" d="M 70.464844 68.824219 L 70.453125 68.824219 L 69.792969 69.179688 L 69.691406 68.789062 L 70.523438 68.34375 L 70.964844 68.34375 L 70.964844 72.140625 L 70.464844 72.140625 Z M 70.464844 68.824219 "/><path style=" stroke:none;fill-rule:nonzero;fill:#000000;fill-opacity:1;" d="M 74.628906 68.777344 L 73.175781 68.777344 L 73.027344 69.753906 C 73.113281 69.742188 73.199219 69.730469 73.339844 69.730469 C 73.636719 69.730469 73.925781 69.792969 74.160156 69.933594 C 74.457031 70.097656 74.703125 70.429688 74.703125 70.910156 C 74.703125 71.652344 74.113281 72.207031 73.285156 72.207031 C 72.867188 72.207031 72.523438 72.089844 72.335938 71.972656 L 72.464844 71.582031 C 72.625 71.675781 72.933594 71.792969 73.285156 71.792969 C 73.765625 71.792969 74.1875 71.476562 74.183594 70.960938 C 74.183594 70.476562 73.847656 70.125 73.089844 70.125 C 72.867188 70.125 72.699219 70.144531 72.558594 70.167969 L 72.804688 68.34375 L 74.628906 68.34375 Z M 74.628906 68.777344 "/><path style=" stroke:none;fill-rule:nonzero;fill:#000000;fill-opacity:1;" d="M 70.128906 73.632812 L 70.253906 73.144531 L 82.886719 80.429688 L 82.886719 80.988281 Z M 70.128906 73.632812 "/><path style=" stroke:none;fill-rule:nonzero;fill:#000000;fill-opacity:1;" d="M 55.617188 73.632812 L 55.46875 73.144531 L 70.253906 73.144531 L 70.128906 73.632812 Z M 55.617188 73.632812 "/><path style=" stroke:none;fill-rule:nonzero;fill:#000000;fill-opacity:1;" d="M 56.007812 74.898438 L 69.714844 74.898438 L 69.714844 75.386719 L 56.007812 75.386719 Z M 56.007812 74.898438 "/><path style=" stroke:none;fill-rule:nonzero;fill:#000000;fill-opacity:1;" d="M 42.835938 80.988281 L 42.835938 80.429688 L 55.46875 73.144531 L 55.617188 73.632812 Z M 42.835938 80.988281 "/><path style=" stroke:none;fill-rule:nonzero;fill:#000000;fill-opacity:1;" d="M 24.183594 69.53125 L 24.171875 69.53125 L 23.511719 69.890625 L 23.410156 69.496094 L 24.242188 69.054688 L 24.683594 69.054688 L 24.683594 72.851562 L 24.183594 72.851562 Z M 24.183594 69.53125 "/><path style=" stroke:none;fill-rule:nonzero;fill:#000000;fill-opacity:1;" d="M 27.351562 68.988281 C 28.089844 68.988281 28.464844 69.445312 28.464844 69.925781 C 28.464844 70.246094 28.300781 70.597656 27.832031 70.8125 L 27.832031 70.828125 C 28.304688 71.015625 28.597656 71.355469 28.597656 71.8125 C 28.597656 72.476562 28.03125 72.914062 27.304688 72.914062 C 26.507812 72.914062 26.027344 72.449219 26.027344 71.894531 C 26.027344 71.414062 26.3125 71.070312 26.777344 70.871094 L 26.777344 70.851562 C 26.347656 70.65625 26.167969 70.328125 26.167969 70 C 26.167969 69.398438 26.675781 68.988281 27.34375 68.988281 Z M 27.316406 72.542969 C 27.777344 72.542969 28.078125 72.253906 28.078125 71.863281 C 28.078125 71.40625 27.753906 71.179688 27.238281 71.035156 C 26.792969 71.164062 26.554688 71.460938 26.554688 71.824219 C 26.535156 72.203125 26.828125 72.542969 27.308594 72.542969 Z M 27.320312 69.359375 C 26.894531 69.359375 26.660156 69.636719 26.660156 69.964844 C 26.652344 70.34375 26.945312 70.550781 27.386719 70.664062 C 27.714844 70.554688 27.964844 70.320312 27.964844 69.976562 C 27.964844 69.671875 27.785156 69.355469 27.328125 69.355469 L 27.320312 69.355469 Z M 27.320312 69.359375 "/><path style=" stroke:none;fill-rule:nonzero;fill:#000000;fill-opacity:1;" d="M 24.183594 69.53125 L 24.171875 69.53125 L 23.511719 69.890625 L 23.410156 69.496094 L 24.242188 69.054688 L 24.683594 69.054688 L 24.683594 72.851562 L 24.183594 72.851562 Z M 24.183594 69.53125 "/><path style=" stroke:none;fill-rule:nonzero;fill:#000000;fill-opacity:1;" d="M 27.351562 68.988281 C 28.089844 68.988281 28.464844 69.445312 28.464844 69.925781 C 28.464844 70.246094 28.300781 70.597656 27.832031 70.8125 L 27.832031 70.828125 C 28.304688 71.015625 28.597656 71.355469 28.597656 71.8125 C 28.597656 72.476562 28.03125 72.914062 27.304688 72.914062 C 26.507812 72.914062 26.027344 72.449219 26.027344 71.894531 C 26.027344 71.414062 26.3125 71.070312 26.777344 70.871094 L 26.777344 70.851562 C 26.347656 70.65625 26.167969 70.328125 26.167969 70 C 26.167969 69.398438 26.675781 68.988281 27.34375 68.988281 Z M 27.316406 72.542969 C 27.777344 72.542969 28.078125 72.253906 28.078125 71.863281 C 28.078125 71.40625 27.753906 71.179688 27.238281 71.035156 C 26.792969 71.164062 26.554688 71.460938 26.554688 71.824219 C 26.535156 72.203125 26.828125 72.542969 27.308594 72.542969 Z M 27.320312 69.359375 C 26.894531 69.359375 26.660156 69.636719 26.660156 69.964844 C 26.652344 70.34375 26.945312 70.550781 27.386719 70.664062 C 27.714844 70.554688 27.964844 70.320312 27.964844 69.976562 C 27.964844 69.671875 27.785156 69.355469 27.328125 69.355469 L 27.320312 69.355469 Z M 27.320312 69.359375 "/><path style=" stroke:none;fill-rule:nonzero;fill:#000000;fill-opacity:1;" d="M 30.058594 73.609375 L 30.300781 73.195312 L 42.835938 80.429688 L 42.835938 80.988281 Z M 30.058594 73.609375 "/></g></svg>