<svg xmlns="http://www.w3.org/2000/svg" xmlns:xlink="http://www.w3.org/1999/xlink" width="400" zoomAndPan="magnify" viewBox="0 0 300 149.999998" height="200" preserveAspectRatio="xMidYMid meet" version="1.2"><defs/><g id="6f39f71c39"><g style="fill:#000000;fill-opacity:1;"><g transform="translate(110.317114, 71.154262)"><path style="stroke:none" d="M 5.640625 -9.03125 C 4.566406 -9.03125 3.722656 -8.671875 3.109375 -7.953125 C 2.492188 -7.234375 2.1875 -6.25 2.1875 -5 C 2.1875 -3.707031 2.484375 -2.710938 3.078125 -2.015625 C 3.671875 -1.316406 4.519531 -0.96875 5.625 -0.96875 C 6.332031 -0.96875 7.132812 -1.097656 8.03125 -1.359375 L 8.03125 -0.265625 C 7.601562 -0.109375 7.191406 -0.00390625 6.796875 0.046875 C 6.410156 0.109375 5.960938 0.140625 5.453125 0.140625 C 3.972656 0.140625 2.835938 -0.304688 2.046875 -1.203125 C 1.253906 -2.097656 0.859375 -3.367188 0.859375 -5.015625 C 0.859375 -6.046875 1.046875 -6.945312 1.421875 -7.71875 C 1.804688 -8.488281 2.359375 -9.082031 3.078125 -9.5 C 3.804688 -9.925781 4.664062 -10.140625 5.65625 -10.140625 C 6.707031 -10.140625 7.628906 -9.941406 8.421875 -9.546875 L 7.90625 -8.484375 C 7.113281 -8.847656 6.359375 -9.03125 5.640625 -9.03125 Z M 5.640625 -9.03125 "/></g></g><g style="fill:#000000;fill-opacity:1;"><g transform="translate(128.762425, 71.154262)"><path style="stroke:none" d="M 9 0 L 7.75 0 L 7.75 -4.65625 L 2.625 -4.65625 L 2.625 0 L 1.359375 0 L 1.359375 -10 L 2.625 -10 L 2.625 -5.765625 L 7.75 -5.765625 L 7.75 -10 L 9 -10 Z M 9 0 "/></g></g><g style="fill:#000000;fill-opacity:1;"><g transform="translate(148.742893, 71.154262)"><path style="stroke:none" d="M 5.640625 -9.03125 C 4.566406 -9.03125 3.722656 -8.671875 3.109375 -7.953125 C 2.492188 -7.234375 2.1875 -6.25 2.1875 -5 C 2.1875 -3.707031 2.484375 -2.710938 3.078125 -2.015625 C 3.671875 -1.316406 4.519531 -0.96875 5.625 -0.96875 C 6.332031 -0.96875 7.132812 -1.097656 8.03125 -1.359375 L 8.03125 -0.265625 C 7.601562 -0.109375 7.191406 -0.00390625 6.796875 0.046875 C 6.410156 0.109375 5.960938 0.140625 5.453125 0.140625 C 3.972656 0.140625 2.835938 -0.304688 2.046875 -1.203125 C 1.253906 -2.097656 0.859375 -3.367188 0.859375 -5.015625 C 0.859375 -6.046875 1.046875 -6.945312 1.421875 -7.71875 C 1.804688 -8.488281 2.359375 -9.082031 3.078125 -9.5 C 3.804688 -9.925781 4.664062 -10.140625 5.65625 -10.140625 C 6.707031 -10.140625 7.628906 -9.941406 8.421875 -9.546875 L 7.90625 -8.484375 C 7.113281 -8.847656 6.359375 -9.03125 5.640625 -9.03125 Z M 5.640625 -9.03125 "/></g></g><g style="fill:#000000;fill-opacity:1;"><g transform="translate(157.446994, 71.154262)"><path style="stroke:none" d="M 10.078125 -5.015625 C 10.078125 -3.410156 9.671875 -2.148438 8.859375 -1.234375 C 8.054688 -0.316406 6.925781 0.140625 5.46875 0.140625 C 4 0.140625 2.863281 -0.304688 2.0625 -1.203125 C 1.257812 -2.109375 0.859375 -3.382812 0.859375 -5.03125 C 0.859375 -6.65625 1.253906 -7.914062 2.046875 -8.8125 C 2.847656 -9.707031 3.992188 -10.15625 5.484375 -10.15625 C 6.929688 -10.15625 8.054688 -9.695312 8.859375 -8.78125 C 9.671875 -7.875 10.078125 -6.617188 10.078125 -5.015625 Z M 2.1875 -5.015625 C 2.1875 -3.691406 2.460938 -2.679688 3.015625 -1.984375 C 3.578125 -1.296875 4.394531 -0.953125 5.46875 -0.953125 C 6.539062 -0.953125 7.351562 -1.289062 7.90625 -1.96875 C 8.46875 -2.65625 8.75 -3.671875 8.75 -5.015625 C 8.75 -6.347656 8.472656 -7.351562 7.921875 -8.03125 C 7.367188 -8.707031 6.554688 -9.046875 5.484375 -9.046875 C 4.398438 -9.046875 3.578125 -8.703125 3.015625 -8.015625 C 2.460938 -7.328125 2.1875 -6.328125 2.1875 -5.015625 Z M 2.1875 -5.015625 "/></g></g><g style="fill:#000000;fill-opacity:1;"><g transform="translate(168.371558, 71.154262)"><path style="stroke:none" d="M 10.078125 -5.015625 C 10.078125 -3.410156 9.671875 -2.148438 8.859375 -1.234375 C 8.054688 -0.316406 6.925781 0.140625 5.46875 0.140625 C 4 0.140625 2.863281 -0.304688 2.0625 -1.203125 C 1.257812 -2.109375 0.859375 -3.382812 0.859375 -5.03125 C 0.859375 -6.65625 1.253906 -7.914062 2.046875 -8.8125 C 2.847656 -9.707031 3.992188 -10.15625 5.484375 -10.15625 C 6.929688 -10.15625 8.054688 -9.695312 8.859375 -8.78125 C 9.671875 -7.875 10.078125 -6.617188 10.078125 -5.015625 Z M 2.1875 -5.015625 C 2.1875 -3.691406 2.460938 -2.679688 3.015625 -1.984375 C 3.578125 -1.296875 4.394531 -0.953125 5.46875 -0.953125 C 6.539062 -0.953125 7.351562 -1.289062 7.90625 -1.96875 C 8.46875 -2.65625 8.75 -3.671875 8.75 -5.015625 C 8.75 -6.347656 8.472656 -7.351562 7.921875 -8.03125 C 7.367188 -8.707031 6.554688 -9.046875 5.484375 -9.046875 C 4.398438 -9.046875 3.578125 -8.703125 3.015625 -8.015625 C 2.460938 -7.328125 2.1875 -6.328125 2.1875 -5.015625 Z M 2.1875 -5.015625 "/></g></g><g style="fill:#000000;fill-opacity:1;"><g transform="translate(179.296122, 71.154262)"><path style="stroke:none" d="M 9 0 L 7.75 0 L 7.75 -4.65625 L 2.625 -4.65625 L 2.625 0 L 1.359375 0 L 1.359375 -10 L 2.625 -10 L 2.625 -5.765625 L 7.75 -5.765625 L 7.75 -10 L 9 -10 Z M 9 0 "/></g></g><g style="fill:#000000;fill-opacity:1;"><g transform="translate(119.16477, 73.404262)"><path style="stroke:none" d="M 2.984375 0 L 2.265625 0 L 2.265625 -4.1875 C 2.265625 -4.5625 2.273438 -4.910156 2.296875 -5.234375 C 2.210938 -5.148438 2.128906 -5.070312 2.046875 -5 C 1.765625 -4.769531 1.460938 -4.519531 1.140625 -4.25 L 0.75 -4.734375 L 2.375 -6 L 2.984375 -6 Z M 2.984375 0 "/></g></g><g style="fill:#000000;fill-opacity:1;"><g transform="translate(123.962339, 73.404262)"><path style="stroke:none" d="M 1.140625 0 L 3.609375 -5.328125 L 0.375 -5.328125 L 0.375 -6 L 4.390625 -6 L 4.390625 -5.4375 L 1.953125 0 Z M 1.140625 0 "/></g></g><g style="fill:#000000;fill-opacity:1;"><g transform="translate(139.145237, 73.404262)"><path style="stroke:none" d="M 4.375 0 L 0.40625 0 L 0.40625 -0.609375 L 1.96875 -2.203125 C 2.445312 -2.679688 2.757812 -3.019531 2.90625 -3.21875 C 3.0625 -3.425781 3.175781 -3.625 3.25 -3.8125 C 3.332031 -4.007812 3.375 -4.21875 3.375 -4.4375 C 3.375 -4.757812 3.273438 -5.007812 3.078125 -5.1875 C 2.890625 -5.363281 2.632812 -5.453125 2.3125 -5.453125 C 2.0625 -5.453125 1.828125 -5.410156 1.609375 -5.328125 C 1.390625 -5.242188 1.140625 -5.097656 0.859375 -4.890625 L 0.46875 -5.375 C 1.03125 -5.851562 1.644531 -6.09375 2.3125 -6.09375 C 2.863281 -6.09375 3.300781 -5.945312 3.625 -5.65625 C 3.957031 -5.375 4.125 -4.984375 4.125 -4.484375 C 4.125 -4.222656 4.078125 -3.96875 3.984375 -3.71875 C 3.890625 -3.476562 3.742188 -3.234375 3.546875 -2.984375 C 3.359375 -2.734375 3.039062 -2.382812 2.59375 -1.9375 L 1.34375 -0.703125 L 1.34375 -0.671875 L 4.375 -0.671875 Z M 4.375 0 "/></g></g><g style="fill:#000000;fill-opacity:1;"><g transform="translate(143.942806, 73.404262)"><path style="stroke:none" d="M 4.375 -3.4375 C 4.375 -1.09375 3.453125 0.078125 1.609375 0.078125 C 1.296875 0.078125 1.046875 0.0507812 0.859375 0 L 0.859375 -0.625 C 1.066406 -0.550781 1.3125 -0.515625 1.59375 -0.515625 C 2.039062 -0.515625 2.410156 -0.601562 2.703125 -0.78125 C 2.992188 -0.96875 3.210938 -1.234375 3.359375 -1.578125 C 3.515625 -1.921875 3.601562 -2.375 3.625 -2.9375 L 3.578125 -2.9375 C 3.265625 -2.476562 2.785156 -2.25 2.140625 -2.25 C 1.609375 -2.25 1.1875 -2.40625 0.875 -2.71875 C 0.570312 -3.039062 0.421875 -3.488281 0.421875 -4.0625 C 0.421875 -4.675781 0.59375 -5.164062 0.9375 -5.53125 C 1.289062 -5.90625 1.753906 -6.09375 2.328125 -6.09375 C 2.742188 -6.09375 3.101562 -5.984375 3.40625 -5.765625 C 3.71875 -5.554688 3.957031 -5.25 4.125 -4.84375 C 4.289062 -4.445312 4.375 -3.976562 4.375 -3.4375 Z M 2.328125 -5.46875 C 1.960938 -5.46875 1.675781 -5.34375 1.46875 -5.09375 C 1.257812 -4.851562 1.15625 -4.507812 1.15625 -4.0625 C 1.15625 -3.664062 1.25 -3.359375 1.4375 -3.140625 C 1.632812 -2.929688 1.921875 -2.828125 2.296875 -2.828125 C 2.546875 -2.828125 2.769531 -2.875 2.96875 -2.96875 C 3.175781 -3.070312 3.335938 -3.207031 3.453125 -3.375 C 3.566406 -3.550781 3.625 -3.734375 3.625 -3.921875 C 3.625 -4.191406 3.566406 -4.445312 3.453125 -4.6875 C 3.347656 -4.925781 3.195312 -5.113281 3 -5.25 C 2.8125 -5.394531 2.585938 -5.46875 2.328125 -5.46875 Z M 2.328125 -5.46875 "/></g></g></g></svg>